{
	"asset":{
		"generator":"Khronos glTF Blender I/O v3.5.30",
		"version":"2.0"
	},
	"extensionsUsed":[
		"KHR_materials_specular",
		"KHR_materials_ior"
	],
	"scene":0,
	"scenes":[
		{
			"name":"Scene",
			"nodes":[
				0,
				1,
				2,
				3,
				4,
				5,
				6,
				18,
				19,
				20,
				21,
				22,
				23,
				24,
				25,
				26,
				27,
				28,
				29,
				30,
				31,
				32,
				33,
				34,
				35,
				36,
				37
			]
		}
	],
	"nodes":[
		{
			"mesh":0,
			"name":"NAVMESH"
		},
		{
			"mesh":1,
			"name":"ball",
			"translation":[
				2.2864983081817627,
				0.2044910192489624,
				0
			]
		},
		{
			"mesh":2,
			"name":"coin",
			"rotation":[
				0,
				0.3467921018600464,
				0,
				0.9379420280456543
			],
			"translation":[
				0,
				0.40010061860084534,
				-4.0706915855407715
			]
		},
		{
			"mesh":3,
			"name":"cook",
			"translation":[
				-5.462374210357666,
				1.0159262418746948,
				0
			]
		},
		{
			"mesh":4,
			"name":"cookProxy",
			"translation":[
				-7.4786224365234375,
				1.0159262418746948,
				0
			]
		},
		{
			"mesh":5,
			"name":"ducky",
			"translation":[
				-2.933729410171509,
				0.9206445217132568,
				0
			]
		},
		{
			"mesh":6,
			"name":"healthpack",
			"translation":[
				-1.7727584838867188,
				0.18845275044441223,
				0
			]
		},
		{
			"mesh":7,
			"name":"trigger",
			"rotation":[
				0.1286926120519638,
				-0.6807860136032104,
				-0.67751145362854,
				0.24687403440475464
			],
			"scale":[
				0.020154275000095367,
				0.013150030747056007,
				0.01315002515912056
			],
			"translation":[
				-0.12548679113388062,
				0.17453759908676147,
				0.04270191490650177
			]
		},
		{
			"children":[
				7
			],
			"name":"Trigger",
			"rotation":[
				0.11122500896453857,
				-0.05730322748422623,
				0.8890333771705627,
				0.44041451811790466
			],
			"scale":[
				1.0000001192092896,
				1,
				1
			],
			"translation":[
				-0.07000647485256195,
				0.15645192563533783,
				-0.0003447193303145468
			]
		},
		{
			"mesh":8,
			"name":"barrel",
			"rotation":[
				0.7131388187408447,
				0.013590894639492035,
				-0.7007763385772705,
				0.012682009488344193
			],
			"scale":[
				0.010503421537578106,
				0.13211484253406525,
				0.010503416880965233
			],
			"translation":[
				-0.27389317750930786,
				-0.07201682031154633,
				0.0035273144021630287
			]
		},
		{
			"children":[
				9
			],
			"name":"Barrel",
			"rotation":[
				-0.006002418231219053,
				0.004410116467624903,
				0.5804733037948608,
				0.8142451643943787
			],
			"scale":[
				1.0000001192092896,
				1.0000001192092896,
				0.9999998807907104
			],
			"translation":[
				-0.12610025703907013,
				0.2325456589460373,
				-0.0006209302227944136
			]
		},
		{
			"mesh":9,
			"name":"shell",
			"rotation":[
				8.980299026006833e-05,
				0.0003110338293481618,
				-0.9999926686286926,
				0.0038204281590878963
			],
			"scale":[
				-0.00926696602255106,
				-0.0160556398332119,
				-0.009266966953873634
			],
			"translation":[
				-0.3011258840560913,
				0.006265363190323114,
				0.022388029843568802
			]
		},
		{
			"children":[
				11
			],
			"name":"Bone",
			"rotation":[
				0.00039229748654179275,
				-0.02772078849375248,
				-0.01414472796022892,
				0.9995155930519104
			],
			"scale":[
				1,
				0.9999998211860657,
				1
			],
			"translation":[
				0.020084813237190247,
				0.12220539152622223,
				0.0011149246711283922
			]
		},
		{
			"mesh":10,
			"name":"slide",
			"rotation":[
				0.020190170034766197,
				-0.01763235032558441,
				-0.7137219905853271,
				0.6999160051345825
			],
			"scale":[
				0.21331745386123657,
				0.024393128231167793,
				0.011896137148141861
			],
			"translation":[
				-0.26834622025489807,
				0.1807456910610199,
				-0.007500263396650553
			]
		},
		{
			"children":[
				12,
				13
			],
			"name":"Top",
			"rotation":[
				-0.018039658665657043,
				0.020254358649253845,
				0.5973736643791199,
				0.8015042543411255
			],
			"scale":[
				1,
				1,
				0.9999998807907104
			],
			"translation":[
				0.10689246654510498,
				0.15546180307865143,
				0.0005263462080620229
			]
		},
		{
			"mesh":11,
			"name":"grip",
			"rotation":[
				0.6965133547782898,
				-0.10989250242710114,
				-0.11414825171232224,
				0.6998307108879089
			],
			"scale":[
				0.21138295531272888,
				0.1333884596824646,
				0.024094540625810623
			],
			"translation":[
				-0.1430073231458664,
				-0.05007990077137947,
				0.006680432707071304
			]
		},
		{
			"mesh":12,
			"name":"magazine",
			"rotation":[
				0.6967707276344299,
				-0.1069834902882576,
				-0.11172228306531906,
				0.7004165053367615
			],
			"scale":[
				0.21138286590576172,
				0.13338840007781982,
				0.024094536900520325
			],
			"translation":[
				-0.1430073231458664,
				-0.05007990077137947,
				0.006680432707071304
			]
		},
		{
			"children":[
				8,
				10,
				14,
				15,
				16
			],
			"name":"Handle",
			"rotation":[
				0.11167176067829132,
				0.6999057531356812,
				0.11222302168607712,
				0.6964677572250366
			],
			"scale":[
				1,
				0.9999999403953552,
				0.9999999403953552
			],
			"translation":[
				-0.007443645037710667,
				-0.07073378562927246,
				-0.11943528056144714
			]
		},
		{
			"children":[
				17
			],
			"name":"GunArmature",
			"scale":[
				0.45024359226226807,
				0.45024359226226807,
				0.45024359226226807
			],
			"translation":[
				0.007083585485816002,
				0.5921468734741211,
				0
			]
		},
		{
			"name":"gun",
			"translation":[
				0,
				0.1652357280254364,
				0
			]
		},
		{
			"mesh":13,
			"name":"panProxy",
			"translation":[
				3.3624188899993896,
				0,
				0
			]
		},
		{
			"mesh":14,
			"name":"pan",
			"translation":[
				1.3118740320205688,
				0.13385248184204102,
				0
			]
		},
		{
			"mesh":15,
			"name":"arch",
			"translation":[
				-24.935821533203125,
				2.2340972423553467,
				0
			]
		},
		{
			"mesh":16,
			"name":"brickcube",
			"translation":[
				-8.98369026184082,
				1.5583802461624146,
				-16.256370544433594
			]
		},
		{
			"mesh":16,
			"name":"brickcube.001",
			"translation":[
				13.119945526123047,
				1.5583802461624146,
				0
			]
		},
		{
			"mesh":16,
			"name":"brickcube.002",
			"translation":[
				13.119945526123047,
				1.5583802461624146,
				14.82465934753418
			]
		},
		{
			"mesh":16,
			"name":"brickcube.003",
			"translation":[
				2.2557430267333984,
				1.5583802461624146,
				14.82465934753418
			]
		},
		{
			"mesh":16,
			"name":"brickcube.004",
			"rotation":[
				0,
				0.358281672000885,
				0,
				0.9336135387420654
			],
			"translation":[
				26.634281158447266,
				1.5583802461624146,
				14.82465934753418
			]
		},
		{
			"mesh":17,
			"name":"groundbox",
			"translation":[
				0,
				-0.5,
				0
			]
		},
		{
			"mesh":18,
			"name":"ramp",
			"rotation":[
				0,
				-0.17201140522956848,
				0,
				0.9850949645042419
			],
			"translation":[
				5.031171798706055,
				1.0945215225219727,
				-14.851181030273438
			]
		},
		{
			"mesh":19,
			"name":"stairs",
			"rotation":[
				0,
				-0.7071068286895752,
				0,
				0.7071068286895752
			],
			"translation":[
				16.55304718017578,
				2.049532651901245,
				-25.5609188079834
			]
		},
		{
			"mesh":19,
			"name":"stairs.001",
			"rotation":[
				0,
				0.7071068286895752,
				0,
				0.7071068286895752
			],
			"translation":[
				34.734195709228516,
				2.049532651901245,
				-25.5609188079834
			]
		},
		{
			"mesh":20,
			"name":"stairsProxy",
			"rotation":[
				0,
				-0.7071068286895752,
				0,
				0.7071068286895752
			],
			"translation":[
				16.55304718017578,
				2.049532651901245,
				-25.5609188079834
			]
		},
		{
			"mesh":20,
			"name":"stairsProxy.001",
			"rotation":[
				0,
				0.7071068286895752,
				0,
				0.7071068286895752
			],
			"translation":[
				34.73365020751953,
				2.049532651901245,
				-25.5609188079834
			]
		},
		{
			"mesh":21,
			"name":"walkway",
			"translation":[
				0,
				3.8699963092803955,
				0
			]
		},
		{
			"mesh":22,
			"name":"wall",
			"translation":[
				0,
				2.6168854236602783,
				-30.231727600097656
			]
		},
		{
			"mesh":22,
			"name":"wall.001",
			"rotation":[
				0,
				0,
				-0.49524006247520447,
				0.8687561750411987
			],
			"translation":[
				22.17572784423828,
				0.8856650590896606,
				1.7931060791015625
			]
		},
		{
			"mesh":22,
			"name":"wall.002",
			"rotation":[
				0.3535533845424652,
				0.6123724579811096,
				0.3535533845424652,
				0.6123723983764648
			],
			"translation":[
				22.17572784423828,
				0.8856650590896606,
				30.304529190063477
			]
		}
	],
	"animations":[
		{
			"channels":[
				{
					"sampler":0,
					"target":{
						"node":0,
						"path":"translation"
					}
				},
				{
					"sampler":1,
					"target":{
						"node":0,
						"path":"rotation"
					}
				},
				{
					"sampler":2,
					"target":{
						"node":0,
						"path":"scale"
					}
				}
			],
			"name":"NAVMESH",
			"samplers":[
				{
					"input":122,
					"interpolation":"LINEAR",
					"output":123
				},
				{
					"input":122,
					"interpolation":"LINEAR",
					"output":124
				},
				{
					"input":122,
					"interpolation":"LINEAR",
					"output":125
				}
			]
		},
		{
			"channels":[
				{
					"sampler":0,
					"target":{
						"node":1,
						"path":"translation"
					}
				},
				{
					"sampler":1,
					"target":{
						"node":1,
						"path":"rotation"
					}
				},
				{
					"sampler":2,
					"target":{
						"node":1,
						"path":"scale"
					}
				}
			],
			"name":"ball",
			"samplers":[
				{
					"input":122,
					"interpolation":"LINEAR",
					"output":126
				},
				{
					"input":122,
					"interpolation":"LINEAR",
					"output":127
				},
				{
					"input":122,
					"interpolation":"LINEAR",
					"output":128
				}
			]
		},
		{
			"channels":[
				{
					"sampler":0,
					"target":{
						"node":2,
						"path":"translation"
					}
				},
				{
					"sampler":1,
					"target":{
						"node":2,
						"path":"rotation"
					}
				},
				{
					"sampler":2,
					"target":{
						"node":2,
						"path":"scale"
					}
				}
			],
			"name":"coin",
			"samplers":[
				{
					"input":122,
					"interpolation":"LINEAR",
					"output":129
				},
				{
					"input":122,
					"interpolation":"LINEAR",
					"output":130
				},
				{
					"input":122,
					"interpolation":"LINEAR",
					"output":131
				}
			]
		},
		{
			"channels":[
				{
					"sampler":0,
					"target":{
						"node":3,
						"path":"translation"
					}
				},
				{
					"sampler":1,
					"target":{
						"node":3,
						"path":"rotation"
					}
				},
				{
					"sampler":2,
					"target":{
						"node":3,
						"path":"scale"
					}
				}
			],
			"name":"cook",
			"samplers":[
				{
					"input":122,
					"interpolation":"LINEAR",
					"output":132
				},
				{
					"input":122,
					"interpolation":"LINEAR",
					"output":133
				},
				{
					"input":122,
					"interpolation":"LINEAR",
					"output":134
				}
			]
		},
		{
			"channels":[
				{
					"sampler":0,
					"target":{
						"node":4,
						"path":"translation"
					}
				},
				{
					"sampler":1,
					"target":{
						"node":4,
						"path":"rotation"
					}
				},
				{
					"sampler":2,
					"target":{
						"node":4,
						"path":"scale"
					}
				}
			],
			"name":"cookProxy",
			"samplers":[
				{
					"input":122,
					"interpolation":"LINEAR",
					"output":135
				},
				{
					"input":122,
					"interpolation":"LINEAR",
					"output":136
				},
				{
					"input":122,
					"interpolation":"LINEAR",
					"output":137
				}
			]
		},
		{
			"channels":[
				{
					"sampler":0,
					"target":{
						"node":5,
						"path":"translation"
					}
				},
				{
					"sampler":1,
					"target":{
						"node":5,
						"path":"rotation"
					}
				},
				{
					"sampler":2,
					"target":{
						"node":5,
						"path":"scale"
					}
				}
			],
			"name":"ducky",
			"samplers":[
				{
					"input":122,
					"interpolation":"LINEAR",
					"output":138
				},
				{
					"input":122,
					"interpolation":"LINEAR",
					"output":139
				},
				{
					"input":122,
					"interpolation":"LINEAR",
					"output":140
				}
			]
		},
		{
			"channels":[
				{
					"sampler":0,
					"target":{
						"node":6,
						"path":"translation"
					}
				},
				{
					"sampler":1,
					"target":{
						"node":6,
						"path":"rotation"
					}
				},
				{
					"sampler":2,
					"target":{
						"node":6,
						"path":"scale"
					}
				}
			],
			"name":"healthpack",
			"samplers":[
				{
					"input":122,
					"interpolation":"LINEAR",
					"output":141
				},
				{
					"input":122,
					"interpolation":"LINEAR",
					"output":142
				},
				{
					"input":122,
					"interpolation":"LINEAR",
					"output":143
				}
			]
		},
		{
			"channels":[
				{
					"sampler":0,
					"target":{
						"node":17,
						"path":"translation"
					}
				},
				{
					"sampler":1,
					"target":{
						"node":17,
						"path":"rotation"
					}
				},
				{
					"sampler":2,
					"target":{
						"node":17,
						"path":"scale"
					}
				},
				{
					"sampler":3,
					"target":{
						"node":8,
						"path":"translation"
					}
				},
				{
					"sampler":4,
					"target":{
						"node":8,
						"path":"rotation"
					}
				},
				{
					"sampler":5,
					"target":{
						"node":8,
						"path":"scale"
					}
				},
				{
					"sampler":6,
					"target":{
						"node":10,
						"path":"translation"
					}
				},
				{
					"sampler":7,
					"target":{
						"node":10,
						"path":"rotation"
					}
				},
				{
					"sampler":8,
					"target":{
						"node":10,
						"path":"scale"
					}
				},
				{
					"sampler":9,
					"target":{
						"node":14,
						"path":"translation"
					}
				},
				{
					"sampler":10,
					"target":{
						"node":14,
						"path":"rotation"
					}
				},
				{
					"sampler":11,
					"target":{
						"node":14,
						"path":"scale"
					}
				},
				{
					"sampler":12,
					"target":{
						"node":12,
						"path":"translation"
					}
				},
				{
					"sampler":13,
					"target":{
						"node":12,
						"path":"rotation"
					}
				},
				{
					"sampler":14,
					"target":{
						"node":12,
						"path":"scale"
					}
				},
				{
					"sampler":15,
					"target":{
						"node":18,
						"path":"translation"
					}
				},
				{
					"sampler":16,
					"target":{
						"node":18,
						"path":"rotation"
					}
				},
				{
					"sampler":17,
					"target":{
						"node":18,
						"path":"scale"
					}
				}
			],
			"name":"0T-pose.001",
			"samplers":[
				{
					"input":144,
					"interpolation":"LINEAR",
					"output":145
				},
				{
					"input":144,
					"interpolation":"LINEAR",
					"output":146
				},
				{
					"input":144,
					"interpolation":"LINEAR",
					"output":147
				},
				{
					"input":144,
					"interpolation":"LINEAR",
					"output":148
				},
				{
					"input":144,
					"interpolation":"LINEAR",
					"output":149
				},
				{
					"input":144,
					"interpolation":"LINEAR",
					"output":150
				},
				{
					"input":144,
					"interpolation":"LINEAR",
					"output":151
				},
				{
					"input":144,
					"interpolation":"LINEAR",
					"output":152
				},
				{
					"input":144,
					"interpolation":"LINEAR",
					"output":153
				},
				{
					"input":144,
					"interpolation":"LINEAR",
					"output":154
				},
				{
					"input":144,
					"interpolation":"LINEAR",
					"output":155
				},
				{
					"input":144,
					"interpolation":"LINEAR",
					"output":156
				},
				{
					"input":144,
					"interpolation":"LINEAR",
					"output":157
				},
				{
					"input":144,
					"interpolation":"LINEAR",
					"output":158
				},
				{
					"input":144,
					"interpolation":"LINEAR",
					"output":159
				},
				{
					"input":144,
					"interpolation":"STEP",
					"output":160
				},
				{
					"input":144,
					"interpolation":"STEP",
					"output":161
				},
				{
					"input":144,
					"interpolation":"STEP",
					"output":162
				}
			]
		},
		{
			"channels":[
				{
					"sampler":0,
					"target":{
						"node":17,
						"path":"translation"
					}
				},
				{
					"sampler":1,
					"target":{
						"node":17,
						"path":"rotation"
					}
				},
				{
					"sampler":2,
					"target":{
						"node":17,
						"path":"scale"
					}
				},
				{
					"sampler":3,
					"target":{
						"node":8,
						"path":"translation"
					}
				},
				{
					"sampler":4,
					"target":{
						"node":8,
						"path":"rotation"
					}
				},
				{
					"sampler":5,
					"target":{
						"node":8,
						"path":"scale"
					}
				},
				{
					"sampler":6,
					"target":{
						"node":10,
						"path":"translation"
					}
				},
				{
					"sampler":7,
					"target":{
						"node":10,
						"path":"rotation"
					}
				},
				{
					"sampler":8,
					"target":{
						"node":10,
						"path":"scale"
					}
				},
				{
					"sampler":9,
					"target":{
						"node":14,
						"path":"translation"
					}
				},
				{
					"sampler":10,
					"target":{
						"node":14,
						"path":"rotation"
					}
				},
				{
					"sampler":11,
					"target":{
						"node":14,
						"path":"scale"
					}
				},
				{
					"sampler":12,
					"target":{
						"node":12,
						"path":"translation"
					}
				},
				{
					"sampler":13,
					"target":{
						"node":12,
						"path":"rotation"
					}
				},
				{
					"sampler":14,
					"target":{
						"node":12,
						"path":"scale"
					}
				}
			],
			"name":"Fire",
			"samplers":[
				{
					"input":163,
					"interpolation":"LINEAR",
					"output":164
				},
				{
					"input":163,
					"interpolation":"LINEAR",
					"output":165
				},
				{
					"input":163,
					"interpolation":"LINEAR",
					"output":166
				},
				{
					"input":163,
					"interpolation":"LINEAR",
					"output":167
				},
				{
					"input":163,
					"interpolation":"LINEAR",
					"output":168
				},
				{
					"input":163,
					"interpolation":"LINEAR",
					"output":169
				},
				{
					"input":163,
					"interpolation":"LINEAR",
					"output":170
				},
				{
					"input":163,
					"interpolation":"LINEAR",
					"output":171
				},
				{
					"input":163,
					"interpolation":"LINEAR",
					"output":172
				},
				{
					"input":163,
					"interpolation":"LINEAR",
					"output":173
				},
				{
					"input":163,
					"interpolation":"LINEAR",
					"output":174
				},
				{
					"input":163,
					"interpolation":"LINEAR",
					"output":175
				},
				{
					"input":163,
					"interpolation":"LINEAR",
					"output":176
				},
				{
					"input":163,
					"interpolation":"LINEAR",
					"output":177
				},
				{
					"input":163,
					"interpolation":"LINEAR",
					"output":178
				}
			]
		},
		{
			"channels":[
				{
					"sampler":0,
					"target":{
						"node":17,
						"path":"translation"
					}
				},
				{
					"sampler":1,
					"target":{
						"node":17,
						"path":"rotation"
					}
				},
				{
					"sampler":2,
					"target":{
						"node":17,
						"path":"scale"
					}
				},
				{
					"sampler":3,
					"target":{
						"node":8,
						"path":"translation"
					}
				},
				{
					"sampler":4,
					"target":{
						"node":8,
						"path":"rotation"
					}
				},
				{
					"sampler":5,
					"target":{
						"node":8,
						"path":"scale"
					}
				},
				{
					"sampler":6,
					"target":{
						"node":10,
						"path":"translation"
					}
				},
				{
					"sampler":7,
					"target":{
						"node":10,
						"path":"rotation"
					}
				},
				{
					"sampler":8,
					"target":{
						"node":10,
						"path":"scale"
					}
				},
				{
					"sampler":9,
					"target":{
						"node":14,
						"path":"translation"
					}
				},
				{
					"sampler":10,
					"target":{
						"node":14,
						"path":"rotation"
					}
				},
				{
					"sampler":11,
					"target":{
						"node":14,
						"path":"scale"
					}
				},
				{
					"sampler":12,
					"target":{
						"node":12,
						"path":"translation"
					}
				},
				{
					"sampler":13,
					"target":{
						"node":12,
						"path":"rotation"
					}
				},
				{
					"sampler":14,
					"target":{
						"node":12,
						"path":"scale"
					}
				}
			],
			"name":"Walk",
			"samplers":[
				{
					"input":179,
					"interpolation":"LINEAR",
					"output":180
				},
				{
					"input":179,
					"interpolation":"LINEAR",
					"output":181
				},
				{
					"input":179,
					"interpolation":"LINEAR",
					"output":182
				},
				{
					"input":179,
					"interpolation":"LINEAR",
					"output":183
				},
				{
					"input":179,
					"interpolation":"LINEAR",
					"output":184
				},
				{
					"input":179,
					"interpolation":"LINEAR",
					"output":185
				},
				{
					"input":179,
					"interpolation":"LINEAR",
					"output":186
				},
				{
					"input":179,
					"interpolation":"LINEAR",
					"output":187
				},
				{
					"input":179,
					"interpolation":"LINEAR",
					"output":188
				},
				{
					"input":179,
					"interpolation":"LINEAR",
					"output":189
				},
				{
					"input":179,
					"interpolation":"LINEAR",
					"output":190
				},
				{
					"input":179,
					"interpolation":"LINEAR",
					"output":191
				},
				{
					"input":179,
					"interpolation":"LINEAR",
					"output":192
				},
				{
					"input":179,
					"interpolation":"LINEAR",
					"output":193
				},
				{
					"input":179,
					"interpolation":"LINEAR",
					"output":194
				}
			]
		},
		{
			"channels":[
				{
					"sampler":0,
					"target":{
						"node":7,
						"path":"translation"
					}
				},
				{
					"sampler":1,
					"target":{
						"node":7,
						"path":"rotation"
					}
				},
				{
					"sampler":2,
					"target":{
						"node":7,
						"path":"scale"
					}
				}
			],
			"name":"trigger",
			"samplers":[
				{
					"input":122,
					"interpolation":"LINEAR",
					"output":195
				},
				{
					"input":122,
					"interpolation":"LINEAR",
					"output":196
				},
				{
					"input":122,
					"interpolation":"LINEAR",
					"output":197
				}
			]
		},
		{
			"channels":[
				{
					"sampler":0,
					"target":{
						"node":16,
						"path":"translation"
					}
				},
				{
					"sampler":1,
					"target":{
						"node":16,
						"path":"rotation"
					}
				},
				{
					"sampler":2,
					"target":{
						"node":16,
						"path":"scale"
					}
				}
			],
			"name":"magazine",
			"samplers":[
				{
					"input":122,
					"interpolation":"LINEAR",
					"output":198
				},
				{
					"input":122,
					"interpolation":"LINEAR",
					"output":199
				},
				{
					"input":122,
					"interpolation":"LINEAR",
					"output":200
				}
			]
		},
		{
			"channels":[
				{
					"sampler":0,
					"target":{
						"node":19,
						"path":"translation"
					}
				},
				{
					"sampler":1,
					"target":{
						"node":19,
						"path":"rotation"
					}
				},
				{
					"sampler":2,
					"target":{
						"node":19,
						"path":"scale"
					}
				}
			],
			"name":"gun",
			"samplers":[
				{
					"input":122,
					"interpolation":"LINEAR",
					"output":201
				},
				{
					"input":122,
					"interpolation":"LINEAR",
					"output":202
				},
				{
					"input":122,
					"interpolation":"LINEAR",
					"output":203
				}
			]
		},
		{
			"channels":[
				{
					"sampler":0,
					"target":{
						"node":20,
						"path":"translation"
					}
				},
				{
					"sampler":1,
					"target":{
						"node":20,
						"path":"rotation"
					}
				},
				{
					"sampler":2,
					"target":{
						"node":20,
						"path":"scale"
					}
				}
			],
			"name":"panProxy",
			"samplers":[
				{
					"input":122,
					"interpolation":"LINEAR",
					"output":204
				},
				{
					"input":122,
					"interpolation":"LINEAR",
					"output":205
				},
				{
					"input":122,
					"interpolation":"LINEAR",
					"output":206
				}
			]
		},
		{
			"channels":[
				{
					"sampler":0,
					"target":{
						"node":21,
						"path":"translation"
					}
				},
				{
					"sampler":1,
					"target":{
						"node":21,
						"path":"rotation"
					}
				},
				{
					"sampler":2,
					"target":{
						"node":21,
						"path":"scale"
					}
				}
			],
			"name":"pan",
			"samplers":[
				{
					"input":122,
					"interpolation":"LINEAR",
					"output":207
				},
				{
					"input":122,
					"interpolation":"LINEAR",
					"output":208
				},
				{
					"input":122,
					"interpolation":"LINEAR",
					"output":209
				}
			]
		},
		{
			"channels":[
				{
					"sampler":0,
					"target":{
						"node":22,
						"path":"translation"
					}
				},
				{
					"sampler":1,
					"target":{
						"node":22,
						"path":"rotation"
					}
				},
				{
					"sampler":2,
					"target":{
						"node":22,
						"path":"scale"
					}
				}
			],
			"name":"arch",
			"samplers":[
				{
					"input":122,
					"interpolation":"LINEAR",
					"output":210
				},
				{
					"input":122,
					"interpolation":"LINEAR",
					"output":211
				},
				{
					"input":122,
					"interpolation":"LINEAR",
					"output":212
				}
			]
		},
		{
			"channels":[
				{
					"sampler":0,
					"target":{
						"node":23,
						"path":"translation"
					}
				},
				{
					"sampler":1,
					"target":{
						"node":23,
						"path":"rotation"
					}
				},
				{
					"sampler":2,
					"target":{
						"node":23,
						"path":"scale"
					}
				}
			],
			"name":"brickcube",
			"samplers":[
				{
					"input":122,
					"interpolation":"LINEAR",
					"output":213
				},
				{
					"input":122,
					"interpolation":"LINEAR",
					"output":214
				},
				{
					"input":122,
					"interpolation":"LINEAR",
					"output":215
				}
			]
		},
		{
			"channels":[
				{
					"sampler":0,
					"target":{
						"node":24,
						"path":"translation"
					}
				},
				{
					"sampler":1,
					"target":{
						"node":24,
						"path":"rotation"
					}
				},
				{
					"sampler":2,
					"target":{
						"node":24,
						"path":"scale"
					}
				}
			],
			"name":"brickcube.001",
			"samplers":[
				{
					"input":122,
					"interpolation":"LINEAR",
					"output":216
				},
				{
					"input":122,
					"interpolation":"LINEAR",
					"output":217
				},
				{
					"input":122,
					"interpolation":"LINEAR",
					"output":218
				}
			]
		},
		{
			"channels":[
				{
					"sampler":0,
					"target":{
						"node":25,
						"path":"translation"
					}
				},
				{
					"sampler":1,
					"target":{
						"node":25,
						"path":"rotation"
					}
				},
				{
					"sampler":2,
					"target":{
						"node":25,
						"path":"scale"
					}
				}
			],
			"name":"brickcube.002",
			"samplers":[
				{
					"input":122,
					"interpolation":"LINEAR",
					"output":219
				},
				{
					"input":122,
					"interpolation":"LINEAR",
					"output":220
				},
				{
					"input":122,
					"interpolation":"LINEAR",
					"output":221
				}
			]
		},
		{
			"channels":[
				{
					"sampler":0,
					"target":{
						"node":26,
						"path":"translation"
					}
				},
				{
					"sampler":1,
					"target":{
						"node":26,
						"path":"rotation"
					}
				},
				{
					"sampler":2,
					"target":{
						"node":26,
						"path":"scale"
					}
				}
			],
			"name":"brickcube.003",
			"samplers":[
				{
					"input":122,
					"interpolation":"LINEAR",
					"output":222
				},
				{
					"input":122,
					"interpolation":"LINEAR",
					"output":223
				},
				{
					"input":122,
					"interpolation":"LINEAR",
					"output":224
				}
			]
		},
		{
			"channels":[
				{
					"sampler":0,
					"target":{
						"node":27,
						"path":"translation"
					}
				},
				{
					"sampler":1,
					"target":{
						"node":27,
						"path":"rotation"
					}
				},
				{
					"sampler":2,
					"target":{
						"node":27,
						"path":"scale"
					}
				}
			],
			"name":"brickcube.004",
			"samplers":[
				{
					"input":122,
					"interpolation":"LINEAR",
					"output":225
				},
				{
					"input":122,
					"interpolation":"LINEAR",
					"output":226
				},
				{
					"input":122,
					"interpolation":"LINEAR",
					"output":227
				}
			]
		},
		{
			"channels":[
				{
					"sampler":0,
					"target":{
						"node":29,
						"path":"translation"
					}
				},
				{
					"sampler":1,
					"target":{
						"node":29,
						"path":"rotation"
					}
				},
				{
					"sampler":2,
					"target":{
						"node":29,
						"path":"scale"
					}
				}
			],
			"name":"ramp",
			"samplers":[
				{
					"input":122,
					"interpolation":"LINEAR",
					"output":228
				},
				{
					"input":122,
					"interpolation":"LINEAR",
					"output":229
				},
				{
					"input":122,
					"interpolation":"LINEAR",
					"output":230
				}
			]
		},
		{
			"channels":[
				{
					"sampler":0,
					"target":{
						"node":30,
						"path":"translation"
					}
				},
				{
					"sampler":1,
					"target":{
						"node":30,
						"path":"rotation"
					}
				},
				{
					"sampler":2,
					"target":{
						"node":30,
						"path":"scale"
					}
				}
			],
			"name":"stairs",
			"samplers":[
				{
					"input":122,
					"interpolation":"LINEAR",
					"output":231
				},
				{
					"input":122,
					"interpolation":"LINEAR",
					"output":232
				},
				{
					"input":122,
					"interpolation":"LINEAR",
					"output":233
				}
			]
		},
		{
			"channels":[
				{
					"sampler":0,
					"target":{
						"node":31,
						"path":"translation"
					}
				},
				{
					"sampler":1,
					"target":{
						"node":31,
						"path":"rotation"
					}
				},
				{
					"sampler":2,
					"target":{
						"node":31,
						"path":"scale"
					}
				}
			],
			"name":"stairs.001",
			"samplers":[
				{
					"input":122,
					"interpolation":"LINEAR",
					"output":234
				},
				{
					"input":122,
					"interpolation":"LINEAR",
					"output":235
				},
				{
					"input":122,
					"interpolation":"LINEAR",
					"output":236
				}
			]
		},
		{
			"channels":[
				{
					"sampler":0,
					"target":{
						"node":32,
						"path":"translation"
					}
				},
				{
					"sampler":1,
					"target":{
						"node":32,
						"path":"rotation"
					}
				},
				{
					"sampler":2,
					"target":{
						"node":32,
						"path":"scale"
					}
				}
			],
			"name":"stairsProxy",
			"samplers":[
				{
					"input":122,
					"interpolation":"LINEAR",
					"output":237
				},
				{
					"input":122,
					"interpolation":"LINEAR",
					"output":238
				},
				{
					"input":122,
					"interpolation":"LINEAR",
					"output":239
				}
			]
		},
		{
			"channels":[
				{
					"sampler":0,
					"target":{
						"node":33,
						"path":"translation"
					}
				},
				{
					"sampler":1,
					"target":{
						"node":33,
						"path":"rotation"
					}
				},
				{
					"sampler":2,
					"target":{
						"node":33,
						"path":"scale"
					}
				}
			],
			"name":"stairsProxy.001",
			"samplers":[
				{
					"input":122,
					"interpolation":"LINEAR",
					"output":240
				},
				{
					"input":122,
					"interpolation":"LINEAR",
					"output":241
				},
				{
					"input":122,
					"interpolation":"LINEAR",
					"output":242
				}
			]
		},
		{
			"channels":[
				{
					"sampler":0,
					"target":{
						"node":34,
						"path":"translation"
					}
				},
				{
					"sampler":1,
					"target":{
						"node":34,
						"path":"rotation"
					}
				},
				{
					"sampler":2,
					"target":{
						"node":34,
						"path":"scale"
					}
				}
			],
			"name":"walkway",
			"samplers":[
				{
					"input":122,
					"interpolation":"LINEAR",
					"output":243
				},
				{
					"input":122,
					"interpolation":"LINEAR",
					"output":244
				},
				{
					"input":122,
					"interpolation":"LINEAR",
					"output":245
				}
			]
		},
		{
			"channels":[
				{
					"sampler":0,
					"target":{
						"node":35,
						"path":"translation"
					}
				},
				{
					"sampler":1,
					"target":{
						"node":35,
						"path":"rotation"
					}
				},
				{
					"sampler":2,
					"target":{
						"node":35,
						"path":"scale"
					}
				}
			],
			"name":"wall",
			"samplers":[
				{
					"input":122,
					"interpolation":"LINEAR",
					"output":246
				},
				{
					"input":122,
					"interpolation":"LINEAR",
					"output":247
				},
				{
					"input":122,
					"interpolation":"LINEAR",
					"output":248
				}
			]
		},
		{
			"channels":[
				{
					"sampler":0,
					"target":{
						"node":36,
						"path":"translation"
					}
				},
				{
					"sampler":1,
					"target":{
						"node":36,
						"path":"rotation"
					}
				},
				{
					"sampler":2,
					"target":{
						"node":36,
						"path":"scale"
					}
				}
			],
			"name":"wall.001",
			"samplers":[
				{
					"input":122,
					"interpolation":"LINEAR",
					"output":249
				},
				{
					"input":122,
					"interpolation":"LINEAR",
					"output":250
				},
				{
					"input":122,
					"interpolation":"LINEAR",
					"output":251
				}
			]
		},
		{
			"channels":[
				{
					"sampler":0,
					"target":{
						"node":37,
						"path":"translation"
					}
				},
				{
					"sampler":1,
					"target":{
						"node":37,
						"path":"rotation"
					}
				},
				{
					"sampler":2,
					"target":{
						"node":37,
						"path":"scale"
					}
				}
			],
			"name":"wall.002",
			"samplers":[
				{
					"input":122,
					"interpolation":"LINEAR",
					"output":252
				},
				{
					"input":122,
					"interpolation":"LINEAR",
					"output":253
				},
				{
					"input":122,
					"interpolation":"LINEAR",
					"output":254
				}
			]
		}
	],
	"materials":[
		{
			"name":"Material_0.001",
			"pbrMetallicRoughness":{
				"metallicFactor":0
			}
		},
		{
			"doubleSided":true,
			"name":"Material",
			"pbrMetallicRoughness":{
				"baseColorFactor":[
					0.8000000715255737,
					0.020902419462800026,
					0.0336466059088707,
					1
				],
				"metallicFactor":0,
				"roughnessFactor":0.5
			}
		},
		{
			"doubleSided":true,
			"extensions":{
				"KHR_materials_specular":{
					"specularColorFactor":[
						1.9599995743787504,
						1.9599995743787504,
						1.9599995743787504
					]
				},
				"KHR_materials_ior":{
					"ior":1.4500000476837158
				}
			},
			"name":"gold",
			"pbrMetallicRoughness":{
				"baseColorFactor":[
					0.8000000715255737,
					0.3399905860424042,
					0.037082307040691376,
					1
				],
				"roughnessFactor":0.3877550959587097
			}
		},
		{
			"doubleSided":true,
			"name":"skin.001",
			"pbrMetallicRoughness":{
				"baseColorFactor":[
					0.8000000715255737,
					0.2082681506872177,
					0.18784946203231812,
					1
				],
				"metallicFactor":0,
				"roughnessFactor":0.5
			}
		},
		{
			"doubleSided":true,
			"extensions":{
				"KHR_materials_specular":{
					"specularColorFactor":[
						0,
						0,
						0
					]
				},
				"KHR_materials_ior":{
					"ior":1.4500000476837158
				}
			},
			"name":"white linnen.001",
			"pbrMetallicRoughness":{
				"baseColorFactor":[
					0.5981239080429077,
					0.6954708099365234,
					0.761272668838501,
					1
				],
				"metallicFactor":0,
				"roughnessFactor":0.7072538733482361
			}
		},
		{
			"doubleSided":true,
			"extensions":{
				"KHR_materials_specular":{
					"specularColorFactor":[
						0,
						0,
						0
					]
				},
				"KHR_materials_ior":{
					"ior":1.4500000476837158
				}
			},
			"name":"black hair.001",
			"pbrMetallicRoughness":{
				"baseColorFactor":[
					0.02037898823618889,
					0.01162705011665821,
					0.003110632998868823,
					1
				],
				"metallicFactor":0,
				"roughnessFactor":0.5
			}
		},
		{
			"doubleSided":true,
			"extensions":{
				"KHR_materials_specular":{
					"specularColorFactor":[
						0,
						0,
						0
					]
				},
				"KHR_materials_ior":{
					"ior":1.4500000476837158
				}
			},
			"name":"blue trousers.001",
			"pbrMetallicRoughness":{
				"baseColorFactor":[
					0.009048908948898315,
					0.005609689746052027,
					0.11927590519189835,
					1
				],
				"metallicFactor":0,
				"roughnessFactor":0.5
			}
		},
		{
			"doubleSided":true,
			"extensions":{
				"KHR_materials_specular":{
					"specularColorFactor":[
						2.371357614441398,
						2.371357614441398,
						2.371357614441398
					]
				},
				"KHR_materials_ior":{
					"ior":1.4500000476837158
				}
			},
			"name":"black shoes.001",
			"pbrMetallicRoughness":{
				"baseColorFactor":[
					0,
					0,
					0,
					1
				],
				"metallicFactor":0.32642486691474915,
				"roughnessFactor":0.5
			}
		},
		{
			"doubleSided":true,
			"name":"eyeball.001",
			"pbrMetallicRoughness":{
				"baseColorFactor":[
					0.800000011920929,
					0.800000011920929,
					0.800000011920929,
					1
				],
				"metallicFactor":0,
				"roughnessFactor":0.5
			}
		},
		{
			"doubleSided":true,
			"extensions":{
				"KHR_materials_specular":{
					"specularColorFactor":[
						2.371357614441398,
						2.371357614441398,
						2.371357614441398
					]
				},
				"KHR_materials_ior":{
					"ior":1.4500000476837158
				}
			},
			"name":"eye.001",
			"pbrMetallicRoughness":{
				"baseColorFactor":[
					0.004351757932454348,
					0.17623737454414368,
					0.8000000715255737,
					1
				],
				"metallicFactor":0.9792746305465698,
				"roughnessFactor":0.044041454792022705
			}
		},
		{
			"name":"proxy",
			"pbrMetallicRoughness":{
				"baseColorFactor":[
					0.8000000715255737,
					0.04368077963590622,
					0.5158710479736328,
					1
				],
				"metallicFactor":0,
				"roughnessFactor":0.5
			}
		},
		{
			"doubleSided":true,
			"extensions":{
				"KHR_materials_specular":{
					"specularColorFactor":[
						0,
						0,
						0
					]
				},
				"KHR_materials_ior":{
					"ior":1.4500000476837158
				}
			},
			"name":"matte",
			"pbrMetallicRoughness":{
				"baseColorTexture":{
					"index":0
				},
				"metallicFactor":0,
				"roughnessFactor":0.5
			}
		},
		{
			"doubleSided":true,
			"extensions":{
				"KHR_materials_specular":{
					"specularColorFactor":[
						1.983317364909052,
						1.983317364909052,
						1.983317364909052
					]
				},
				"KHR_materials_ior":{
					"ior":1.4500000476837158
				}
			},
			"name":"GunMetal",
			"pbrMetallicRoughness":{
				"baseColorFactor":[
					0.07350104302167892,
					0.07350104302167892,
					0.07350104302167892,
					1
				],
				"metallicFactor":0.8863636255264282,
				"roughnessFactor":0.1499999761581421
			}
		},
		{
			"doubleSided":true,
			"extensions":{
				"KHR_materials_specular":{
					"specularColorFactor":[
						0.215577971373942,
						0.215577971373942,
						0.215577971373942
					]
				},
				"KHR_materials_ior":{
					"ior":1.4500000476837158
				}
			},
			"name":"GunHandle",
			"pbrMetallicRoughness":{
				"baseColorFactor":[
					0.020004484802484512,
					0.02908887341618538,
					0.022917304188013077,
					1
				],
				"metallicFactor":0,
				"roughnessFactor":0.5909091234207153
			}
		},
		{
			"doubleSided":true,
			"extensions":{
				"KHR_materials_specular":{
					"specularColorFactor":[
						2.144051418605501,
						2.144051418605501,
						2.144051418605501
					]
				},
				"KHR_materials_ior":{
					"ior":1.4500000476837158
				}
			},
			"name":"Material.001",
			"pbrMetallicRoughness":{
				"baseColorFactor":[
					0.8000000715255737,
					0.3507504463195801,
					0.027565037831664085,
					1
				],
				"metallicFactor":0.7461139559745789,
				"roughnessFactor":0.5
			}
		},
		{
			"doubleSided":true,
			"extensions":{
				"KHR_materials_specular":{
					"specularColorFactor":[
						2.371357614441398,
						2.371357614441398,
						2.371357614441398
					]
				},
				"KHR_materials_ior":{
					"ior":1.4500000476837158
				}
			},
			"name":"copper.001",
			"pbrMetallicRoughness":{
				"baseColorFactor":[
					0.4479804039001465,
					0.2801958918571472,
					0.08097837120294571,
					1
				],
				"roughnessFactor":0.23127157986164093
			}
		},
		{
			"name":"wall",
			"pbrMetallicRoughness":{
				"baseColorTexture":{
					"index":1
				},
				"metallicFactor":0,
				"roughnessFactor":0.5
			}
		},
		{
			"name":"ground",
			"normalTexture":{
				"index":2
			},
			"pbrMetallicRoughness":{
				"baseColorTexture":{
					"index":3
				},
				"metallicRoughnessTexture":{
					"index":4
				}
			}
		},
		{
			"name":"stairs",
			"pbrMetallicRoughness":{
				"baseColorFactor":[
					0.045439571142196655,
					0.06634899228811264,
					0.11927271634340286,
					1
				],
				"metallicFactor":0.4285714328289032,
				"roughnessFactor":0.13775509595870972
			}
		},
		{
			"doubleSided":true,
			"name":"step",
			"pbrMetallicRoughness":{
				"baseColorFactor":[
					0.2431323081254959,
					0.37386375665664673,
					0.7742688655853271,
					1
				],
				"metallicFactor":0,
				"roughnessFactor":0.5
			}
		}
	],
	"meshes":[
		{
			"name":"Mesh_0.001",
			"primitives":[
				{
					"attributes":{
						"POSITION":0,
						"NORMAL":1
					},
					"indices":2,
					"material":0
				}
			]
		},
		{
			"name":"Sphere.002",
			"primitives":[
				{
					"attributes":{
						"POSITION":3,
						"TEXCOORD_0":4,
						"NORMAL":5
					},
					"indices":6,
					"material":1
				}
			]
		},
		{
			"name":"Cylinder",
			"primitives":[
				{
					"attributes":{
						"POSITION":7,
						"TEXCOORD_0":8,
						"NORMAL":9
					},
					"indices":10,
					"material":2
				}
			]
		},
		{
			"name":"cookMesh",
			"primitives":[
				{
					"attributes":{
						"POSITION":11,
						"TEXCOORD_0":12,
						"NORMAL":13
					},
					"indices":14,
					"material":3
				},
				{
					"attributes":{
						"POSITION":15,
						"TEXCOORD_0":16,
						"NORMAL":17
					},
					"indices":18,
					"material":4
				},
				{
					"attributes":{
						"POSITION":19,
						"TEXCOORD_0":20,
						"NORMAL":21
					},
					"indices":22,
					"material":5
				},
				{
					"attributes":{
						"POSITION":23,
						"TEXCOORD_0":24,
						"NORMAL":25
					},
					"indices":26,
					"material":6
				},
				{
					"attributes":{
						"POSITION":27,
						"TEXCOORD_0":28,
						"NORMAL":29
					},
					"indices":30,
					"material":7
				},
				{
					"attributes":{
						"POSITION":31,
						"TEXCOORD_0":32,
						"NORMAL":33
					},
					"indices":34,
					"material":8
				},
				{
					"attributes":{
						"POSITION":35,
						"TEXCOORD_0":36,
						"NORMAL":37
					},
					"indices":38,
					"material":9
				}
			]
		},
		{
			"name":"Cube.004",
			"primitives":[
				{
					"attributes":{
						"POSITION":39,
						"TEXCOORD_0":40,
						"NORMAL":41
					},
					"indices":42,
					"material":10
				}
			]
		},
		{
			"name":"Cube.009",
			"primitives":[
				{
					"attributes":{
						"POSITION":43,
						"TEXCOORD_0":44,
						"NORMAL":45
					},
					"indices":46,
					"material":11
				}
			]
		},
		{
			"name":"Cube.006",
			"primitives":[
				{
					"attributes":{
						"POSITION":47,
						"TEXCOORD_0":48,
						"NORMAL":49
					},
					"indices":50,
					"material":11
				}
			]
		},
		{
			"name":"Plane.005",
			"primitives":[
				{
					"attributes":{
						"POSITION":51,
						"TEXCOORD_0":52,
						"NORMAL":53
					},
					"indices":54,
					"material":12
				}
			]
		},
		{
			"name":"Cylinder.001",
			"primitives":[
				{
					"attributes":{
						"POSITION":55,
						"TEXCOORD_0":56,
						"NORMAL":57
					},
					"indices":58,
					"material":12
				},
				{
					"attributes":{
						"POSITION":59,
						"TEXCOORD_0":60,
						"NORMAL":61
					},
					"indices":62,
					"material":13
				}
			]
		},
		{
			"name":"Cylinder.004",
			"primitives":[
				{
					"attributes":{
						"POSITION":63,
						"TEXCOORD_0":64,
						"NORMAL":65
					},
					"indices":66,
					"material":14
				}
			]
		},
		{
			"name":"Cube.011",
			"primitives":[
				{
					"attributes":{
						"POSITION":67,
						"TEXCOORD_0":68,
						"NORMAL":69
					},
					"indices":70,
					"material":12
				}
			]
		},
		{
			"name":"Plane.002",
			"primitives":[
				{
					"attributes":{
						"POSITION":71,
						"TEXCOORD_0":72,
						"NORMAL":73
					},
					"indices":74,
					"material":13
				}
			]
		},
		{
			"name":"Plane.001",
			"primitives":[
				{
					"attributes":{
						"POSITION":75,
						"TEXCOORD_0":76,
						"NORMAL":77
					},
					"indices":78,
					"material":13
				}
			]
		},
		{
			"name":"Cylinder.003",
			"primitives":[
				{
					"attributes":{
						"POSITION":79,
						"TEXCOORD_0":80,
						"NORMAL":81
					},
					"indices":82,
					"material":10
				}
			]
		},
		{
			"name":"panMesh",
			"primitives":[
				{
					"attributes":{
						"POSITION":83,
						"TEXCOORD_0":84,
						"NORMAL":85
					},
					"indices":86,
					"material":15
				}
			]
		},
		{
			"name":"arch-mesh",
			"primitives":[
				{
					"attributes":{
						"POSITION":87,
						"TEXCOORD_0":88,
						"NORMAL":89
					},
					"indices":90,
					"material":16
				}
			]
		},
		{
			"name":"Cube.007",
			"primitives":[
				{
					"attributes":{
						"POSITION":91,
						"TEXCOORD_0":92,
						"NORMAL":93
					},
					"indices":94,
					"material":16
				}
			]
		},
		{
			"name":"Cube.001",
			"primitives":[
				{
					"attributes":{
						"POSITION":95,
						"TEXCOORD_0":96,
						"NORMAL":97
					},
					"indices":98,
					"material":17
				}
			]
		},
		{
			"name":"Cube.010",
			"primitives":[
				{
					"attributes":{
						"POSITION":99,
						"TEXCOORD_0":100,
						"NORMAL":101
					},
					"indices":102,
					"material":16
				}
			]
		},
		{
			"name":"Cube.002",
			"primitives":[
				{
					"attributes":{
						"POSITION":103,
						"TEXCOORD_0":104,
						"NORMAL":105
					},
					"indices":106,
					"material":18
				},
				{
					"attributes":{
						"POSITION":107,
						"TEXCOORD_0":108,
						"NORMAL":109
					},
					"indices":110,
					"material":19
				}
			]
		},
		{
			"name":"Cube.003",
			"primitives":[
				{
					"attributes":{
						"POSITION":111,
						"TEXCOORD_0":112,
						"NORMAL":113
					},
					"indices":114,
					"material":10
				}
			]
		},
		{
			"name":"Cube.008",
			"primitives":[
				{
					"attributes":{
						"POSITION":115,
						"TEXCOORD_0":116,
						"NORMAL":117
					},
					"indices":118,
					"material":18
				}
			]
		},
		{
			"name":"Cube",
			"primitives":[
				{
					"attributes":{
						"POSITION":119,
						"TEXCOORD_0":120,
						"NORMAL":121
					},
					"indices":118,
					"material":16
				}
			]
		}
	],
	"textures":[
		{
			"sampler":0,
			"source":0
		},
		{
			"sampler":1,
			"source":1
		},
		{
			"sampler":1,
			"source":2
		},
		{
			"sampler":1,
			"source":3
		},
		{
			"sampler":1,
			"source":4
		}
	],
	"images":[
		{
			"mimeType":"image/png",
			"name":"palette",
			"uri":"textures/palette.png"
		},
		{
			"mimeType":"image/jpeg",
			"name":"brickwall",
			"uri":"textures/brickwall.jpg"
		},
		{
			"mimeType":"image/jpeg",
			"name":"Stylized_Stone_Floor_005_normal",
			"uri":"textures/Stylized_Stone_Floor_005_normal.jpg"
		},
		{
			"mimeType":"image/jpeg",
			"name":"Stylized_Stone_Floor_005_basecolor",
			"uri":"textures/Stylized_Stone_Floor_005_basecolor.jpg"
		},
		{
			"mimeType":"image/png",
			"name":"Stylized_Stone_Floor_005_roughness",
			"uri":"textures/Stylized_Stone_Floor_005_roughness.png"
		}
	],
	"skins":[
		{
			"inverseBindMatrices":255,
			"joints":[
				17,
				8,
				10,
				14,
				12
			],
			"name":"GunArmature"
		}
	],
	"accessors":[
		{
			"bufferView":0,
			"componentType":5126,
			"count":972,
			"max":[
				48.80000305175781,
				4.598985195159912,
				48.80000305175781
			],
			"min":[
				-48.79999923706055,
				0.19898521900177002,
				-48.79999923706055
			],
			"type":"VEC3"
		},
		{
			"bufferView":1,
			"componentType":5126,
			"count":972,
			"type":"VEC3"
		},
		{
			"bufferView":2,
			"componentType":5123,
			"count":972,
			"type":"SCALAR"
		},
		{
			"bufferView":3,
			"componentType":5126,
			"count":115,
			"max":[
				0.19720745086669922,
				0.19720745086669922,
				0.19720745086669922
			],
			"min":[
				-0.19720745086669922,
				-0.19720745086669922,
				-0.19720745086669922
			],
			"type":"VEC3"
		},
		{
			"bufferView":4,
			"componentType":5126,
			"count":115,
			"type":"VEC2"
		},
		{
			"bufferView":5,
			"componentType":5126,
			"count":115,
			"type":"VEC3"
		},
		{
			"bufferView":6,
			"componentType":5123,
			"count":504,
			"type":"SCALAR"
		},
		{
			"bufferView":7,
			"componentType":5126,
			"count":443,
			"max":[
				0.0653035119175911,
				0.34178897738456726,
				0.34178897738456726
			],
			"min":[
				-0.0653035119175911,
				-0.34178897738456726,
				-0.34178897738456726
			],
			"type":"VEC3"
		},
		{
			"bufferView":8,
			"componentType":5126,
			"count":443,
			"type":"VEC2"
		},
		{
			"bufferView":9,
			"componentType":5126,
			"count":443,
			"type":"VEC3"
		},
		{
			"bufferView":10,
			"componentType":5123,
			"count":1332,
			"type":"SCALAR"
		},
		{
			"bufferView":11,
			"componentType":5126,
			"count":357,
			"max":[
				1.085756778717041,
				0.6023393273353577,
				0.33458295464515686
			],
			"min":[
				-1.0779366493225098,
				0.02453327178955078,
				-0.26288992166519165
			],
			"type":"VEC3"
		},
		{
			"bufferView":12,
			"componentType":5126,
			"count":357,
			"type":"VEC2"
		},
		{
			"bufferView":13,
			"componentType":5126,
			"count":357,
			"type":"VEC3"
		},
		{
			"bufferView":14,
			"componentType":5123,
			"count":1704,
			"type":"SCALAR"
		},
		{
			"bufferView":15,
			"componentType":5126,
			"count":245,
			"max":[
				0.8275829553604126,
				1.2447962760925293,
				0.3684457242488861
			],
			"min":[
				-0.8197624087333679,
				-0.3233679533004761,
				-0.47913455963134766
			],
			"type":"VEC3"
		},
		{
			"bufferView":16,
			"componentType":5126,
			"count":245,
			"type":"VEC2"
		},
		{
			"bufferView":17,
			"componentType":5126,
			"count":245,
			"type":"VEC3"
		},
		{
			"bufferView":18,
			"componentType":5123,
			"count":1188,
			"type":"SCALAR"
		},
		{
			"bufferView":19,
			"componentType":5126,
			"count":64,
			"max":[
				0.14457151293754578,
				0.6401771903038025,
				0.3082908093929291
			],
			"min":[
				-0.13675083220005035,
				0.4184751510620117,
				0.22549156844615936
			],
			"type":"VEC3"
		},
		{
			"bufferView":20,
			"componentType":5126,
			"count":64,
			"type":"VEC2"
		},
		{
			"bufferView":21,
			"componentType":5126,
			"count":64,
			"type":"VEC3"
		},
		{
			"bufferView":22,
			"componentType":5123,
			"count":192,
			"type":"SCALAR"
		},
		{
			"bufferView":23,
			"componentType":5126,
			"count":50,
			"max":[
				0.3473922908306122,
				-0.30702778697013855,
				0.19820965826511383
			],
			"min":[
				-0.33957159519195557,
				-0.9323759078979492,
				-0.24205346405506134
			],
			"type":"VEC3"
		},
		{
			"bufferView":24,
			"componentType":5126,
			"count":50,
			"type":"VEC2"
		},
		{
			"bufferView":25,
			"componentType":5126,
			"count":50,
			"type":"VEC3"
		},
		{
			"bufferView":26,
			"componentType":5123,
			"count":180,
			"type":"SCALAR"
		},
		{
			"bufferView":27,
			"componentType":5126,
			"count":70,
			"max":[
				0.25760453939437866,
				0.549070417881012,
				0.3451851010322571
			],
			"min":[
				-0.24978403747081757,
				-1.023942232131958,
				-0.11729750037193298
			],
			"type":"VEC3"
		},
		{
			"bufferView":28,
			"componentType":5126,
			"count":70,
			"type":"VEC2"
		},
		{
			"bufferView":29,
			"componentType":5126,
			"count":70,
			"type":"VEC3"
		},
		{
			"bufferView":30,
			"componentType":5123,
			"count":156,
			"type":"SCALAR"
		},
		{
			"bufferView":31,
			"componentType":5126,
			"count":132,
			"max":[
				0.1075153797864914,
				0.5703521370887756,
				0.26194339990615845
			],
			"min":[
				-0.09969469159841537,
				0.5014031529426575,
				0.19895188510417938
			],
			"type":"VEC3"
		},
		{
			"bufferView":32,
			"componentType":5126,
			"count":132,
			"type":"VEC2"
		},
		{
			"bufferView":33,
			"componentType":5126,
			"count":132,
			"type":"VEC3"
		},
		{
			"bufferView":34,
			"componentType":5123,
			"count":552,
			"type":"SCALAR"
		},
		{
			"bufferView":35,
			"componentType":5126,
			"count":28,
			"max":[
				0.0979255735874176,
				0.5531148910522461,
				0.26194339990615845
			],
			"min":[
				-0.09010487049818039,
				0.5115004777908325,
				0.25484582781791687
			],
			"type":"VEC3"
		},
		{
			"bufferView":36,
			"componentType":5126,
			"count":28,
			"type":"VEC2"
		},
		{
			"bufferView":37,
			"componentType":5126,
			"count":28,
			"type":"VEC3"
		},
		{
			"bufferView":38,
			"componentType":5123,
			"count":72,
			"type":"SCALAR"
		},
		{
			"bufferView":39,
			"componentType":5126,
			"count":96,
			"max":[
				0.2790305018424988,
				1,
				0.1490306854248047
			],
			"min":[
				-0.2790305018424988,
				-1,
				-0.1490306854248047
			],
			"type":"VEC3"
		},
		{
			"bufferView":40,
			"componentType":5126,
			"count":96,
			"type":"VEC2"
		},
		{
			"bufferView":41,
			"componentType":5126,
			"count":96,
			"type":"VEC3"
		},
		{
			"bufferView":42,
			"componentType":5123,
			"count":132,
			"type":"SCALAR"
		},
		{
			"bufferView":43,
			"componentType":5126,
			"count":4411,
			"max":[
				0.6537764668464661,
				0.9519127607345581,
				0.5318828225135803
			],
			"min":[
				-0.6537764668464661,
				-0.9198831915855408,
				-0.5208508968353271
			],
			"type":"VEC3"
		},
		{
			"bufferView":44,
			"componentType":5126,
			"count":4411,
			"type":"VEC2"
		},
		{
			"bufferView":45,
			"componentType":5126,
			"count":4411,
			"type":"VEC3"
		},
		{
			"bufferView":46,
			"componentType":5123,
			"count":21852,
			"type":"SCALAR"
		},
		{
			"bufferView":47,
			"componentType":5126,
			"count":168,
			"max":[
				0.21532048285007477,
				0.22019290924072266,
				0.21532048285007477
			],
			"min":[
				-0.21532048285007477,
				-0.17053835093975067,
				-0.21532048285007477
			],
			"type":"VEC3"
		},
		{
			"bufferView":48,
			"componentType":5126,
			"count":168,
			"type":"VEC2"
		},
		{
			"bufferView":49,
			"componentType":5126,
			"count":168,
			"type":"VEC3"
		},
		{
			"bufferView":50,
			"componentType":5123,
			"count":264,
			"type":"SCALAR"
		},
		{
			"bufferView":51,
			"componentType":5126,
			"count":348,
			"max":[
				-0.22962939739227295,
				-1.7442690134048462,
				-12.586820602416992
			],
			"min":[
				-3.006549835205078,
				-2.2853026390075684,
				-17.073225021362305
			],
			"type":"VEC3"
		},
		{
			"bufferView":52,
			"componentType":5126,
			"count":348,
			"type":"VEC2"
		},
		{
			"bufferView":53,
			"componentType":5126,
			"count":348,
			"type":"VEC3"
		},
		{
			"bufferView":54,
			"componentType":5123,
			"count":552,
			"type":"SCALAR"
		},
		{
			"bufferView":55,
			"componentType":5126,
			"count":1618,
			"max":[
				1.8822836875915527,
				-0.699822723865509,
				-27.094074249267578
			],
			"min":[
				-0.11771678924560547,
				-1.747667908668518,
				-29.094074249267578
			],
			"type":"VEC3"
		},
		{
			"bufferView":56,
			"componentType":5126,
			"count":1618,
			"type":"VEC2"
		},
		{
			"bufferView":57,
			"componentType":5126,
			"count":1618,
			"type":"VEC3"
		},
		{
			"bufferView":58,
			"componentType":5123,
			"count":3600,
			"type":"SCALAR"
		},
		{
			"bufferView":59,
			"componentType":5126,
			"count":96,
			"max":[
				2.062530994415283,
				-0.34269219636917114,
				-26.833768844604492
			],
			"min":[
				-0.2979649305343628,
				-0.7084030508995056,
				-29.194263458251953
			],
			"type":"VEC3"
		},
		{
			"bufferView":60,
			"componentType":5126,
			"count":96,
			"type":"VEC2"
		},
		{
			"bufferView":61,
			"componentType":5126,
			"count":96,
			"type":"VEC3"
		},
		{
			"bufferView":62,
			"componentType":5123,
			"count":132,
			"type":"SCALAR"
		},
		{
			"bufferView":63,
			"componentType":5126,
			"count":896,
			"max":[
				32.72926712036133,
				1.6763184070587158,
				1.5684311389923096
			],
			"min":[
				30.700531005859375,
				-0.7110762000083923,
				-0.460304319858551
			],
			"type":"VEC3"
		},
		{
			"bufferView":64,
			"componentType":5126,
			"count":896,
			"type":"VEC2"
		},
		{
			"bufferView":65,
			"componentType":5126,
			"count":896,
			"type":"VEC3"
		},
		{
			"bufferView":66,
			"componentType":5123,
			"count":1524,
			"type":"SCALAR"
		},
		{
			"bufferView":67,
			"componentType":5126,
			"count":1296,
			"max":[
				0.9657155871391296,
				13.061744689941406,
				1.4110593795776367
			],
			"min":[
				-1.0342843532562256,
				10.632691383361816,
				-2.683258056640625
			],
			"type":"VEC3"
		},
		{
			"bufferView":68,
			"componentType":5126,
			"count":1296,
			"type":"VEC2"
		},
		{
			"bufferView":69,
			"componentType":5126,
			"count":1296,
			"type":"VEC3"
		},
		{
			"bufferView":70,
			"componentType":5123,
			"count":2724,
			"type":"SCALAR"
		},
		{
			"bufferView":71,
			"componentType":5126,
			"count":1384,
			"max":[
				1.1401903629302979,
				0.14409545063972473,
				-0.6689090728759766
			],
			"min":[
				-1.0917965173721313,
				-0.22790047526359558,
				-10.853032112121582
			],
			"type":"VEC3"
		},
		{
			"bufferView":72,
			"componentType":5126,
			"count":1384,
			"type":"VEC2"
		},
		{
			"bufferView":73,
			"componentType":5126,
			"count":1384,
			"type":"VEC3"
		},
		{
			"bufferView":74,
			"componentType":5123,
			"count":4821,
			"type":"SCALAR"
		},
		{
			"bufferView":75,
			"componentType":5126,
			"count":295,
			"max":[
				1.05784010887146,
				0.15578871965408325,
				-0.18204498291015625
			],
			"min":[
				0.24358677864074707,
				-0.18466413021087646,
				-9.931586265563965
			],
			"type":"VEC3"
		},
		{
			"bufferView":76,
			"componentType":5126,
			"count":295,
			"type":"VEC2"
		},
		{
			"bufferView":77,
			"componentType":5126,
			"count":295,
			"type":"VEC3"
		},
		{
			"bufferView":78,
			"componentType":5123,
			"count":528,
			"type":"SCALAR"
		},
		{
			"bufferView":79,
			"componentType":5126,
			"count":72,
			"max":[
				0.3030606806278229,
				0.09012127667665482,
				0.3030606806278229
			],
			"min":[
				-0.3030606806278229,
				-0.09012127667665482,
				-0.3030606806278229
			],
			"type":"VEC3"
		},
		{
			"bufferView":80,
			"componentType":5126,
			"count":72,
			"type":"VEC2"
		},
		{
			"bufferView":81,
			"componentType":5126,
			"count":72,
			"type":"VEC3"
		},
		{
			"bufferView":82,
			"componentType":5123,
			"count":132,
			"type":"SCALAR"
		},
		{
			"bufferView":83,
			"componentType":5126,
			"count":278,
			"max":[
				0.3173085153102875,
				0.07744816690683365,
				0.3328385651111603
			],
			"min":[
				-0.3193873465061188,
				-0.032175708562135696,
				-0.7526253461837769
			],
			"type":"VEC3"
		},
		{
			"bufferView":84,
			"componentType":5126,
			"count":278,
			"type":"VEC2"
		},
		{
			"bufferView":85,
			"componentType":5126,
			"count":278,
			"type":"VEC3"
		},
		{
			"bufferView":86,
			"componentType":5123,
			"count":1572,
			"type":"SCALAR"
		},
		{
			"bufferView":87,
			"componentType":5126,
			"count":148,
			"max":[
				1.6748673915863037,
				2.6342010498046875,
				3.575603485107422
			],
			"min":[
				-1.6748673915863037,
				-2.2232537269592285,
				-3.575603485107422
			],
			"type":"VEC3"
		},
		{
			"bufferView":88,
			"componentType":5126,
			"count":148,
			"type":"VEC2"
		},
		{
			"bufferView":89,
			"componentType":5126,
			"count":148,
			"type":"VEC3"
		},
		{
			"bufferView":90,
			"componentType":5123,
			"count":336,
			"type":"SCALAR"
		},
		{
			"bufferView":91,
			"componentType":5126,
			"count":18,
			"max":[
				2.3984546661376953,
				1.5807006359100342,
				2.3984546661376953
			],
			"min":[
				-2.3984546661376953,
				-1.5549219846725464,
				-2.3984546661376953
			],
			"type":"VEC3"
		},
		{
			"bufferView":92,
			"componentType":5126,
			"count":18,
			"type":"VEC2"
		},
		{
			"bufferView":93,
			"componentType":5126,
			"count":18,
			"type":"VEC3"
		},
		{
			"bufferView":94,
			"componentType":5123,
			"count":36,
			"type":"SCALAR"
		},
		{
			"bufferView":95,
			"componentType":5126,
			"count":24,
			"max":[
				50,
				0.49853527545928955,
				50
			],
			"min":[
				-50,
				-0.5010148286819458,
				-50
			],
			"type":"VEC3"
		},
		{
			"bufferView":96,
			"componentType":5126,
			"count":24,
			"type":"VEC2"
		},
		{
			"bufferView":97,
			"componentType":5126,
			"count":24,
			"type":"VEC3"
		},
		{
			"bufferView":98,
			"componentType":5123,
			"count":36,
			"type":"SCALAR"
		},
		{
			"bufferView":99,
			"componentType":5126,
			"count":24,
			"max":[
				5.349658012390137,
				0.9289354085922241,
				7.3318915367126465
			],
			"min":[
				-5.349658012390137,
				-1.0710645914077759,
				-1.9888405799865723
			],
			"type":"VEC3"
		},
		{
			"bufferView":100,
			"componentType":5126,
			"count":24,
			"type":"VEC2"
		},
		{
			"bufferView":101,
			"componentType":5126,
			"count":24,
			"type":"VEC3"
		},
		{
			"bufferView":102,
			"componentType":5123,
			"count":36,
			"type":"SCALAR"
		},
		{
			"bufferView":103,
			"componentType":5126,
			"count":190,
			"max":[
				1.537176489830017,
				1.9870656728744507,
				3.1600663661956787
			],
			"min":[
				-1.537176489830017,
				-2.005847930908203,
				-3.1600663661956787
			],
			"type":"VEC3"
		},
		{
			"bufferView":104,
			"componentType":5126,
			"count":190,
			"type":"VEC2"
		},
		{
			"bufferView":105,
			"componentType":5126,
			"count":190,
			"type":"VEC3"
		},
		{
			"bufferView":106,
			"componentType":5123,
			"count":396,
			"type":"SCALAR"
		},
		{
			"bufferView":107,
			"componentType":5126,
			"count":192,
			"max":[
				1.7132222652435303,
				2.09346079826355,
				3.2053050994873047
			],
			"min":[
				-1.7132222652435303,
				-1.2686525583267212,
				-3.2053050994873047
			],
			"type":"VEC3"
		},
		{
			"bufferView":108,
			"componentType":5126,
			"count":192,
			"type":"VEC2"
		},
		{
			"bufferView":109,
			"componentType":5126,
			"count":192,
			"type":"VEC3"
		},
		{
			"bufferView":110,
			"componentType":5123,
			"count":288,
			"type":"SCALAR"
		},
		{
			"bufferView":111,
			"componentType":5126,
			"count":24,
			"max":[
				1.537176489830017,
				2.090294361114502,
				3.1600663661956787
			],
			"min":[
				-1.537176489830017,
				-2.0304579734802246,
				-3.1600663661956787
			],
			"type":"VEC3"
		},
		{
			"bufferView":112,
			"componentType":5126,
			"count":24,
			"type":"VEC2"
		},
		{
			"bufferView":113,
			"componentType":5126,
			"count":24,
			"type":"VEC3"
		},
		{
			"bufferView":114,
			"componentType":5123,
			"count":36,
			"type":"SCALAR"
		},
		{
			"bufferView":115,
			"componentType":5126,
			"count":24,
			"max":[
				31.719924926757812,
				0.4479367733001709,
				-23.979204177856445
			],
			"min":[
				19.591903686523438,
				-0.4871704578399658,
				-27.09900665283203
			],
			"type":"VEC3"
		},
		{
			"bufferView":116,
			"componentType":5126,
			"count":24,
			"type":"VEC2"
		},
		{
			"bufferView":117,
			"componentType":5126,
			"count":24,
			"type":"VEC3"
		},
		{
			"bufferView":118,
			"componentType":5123,
			"count":36,
			"type":"SCALAR"
		},
		{
			"bufferView":119,
			"componentType":5126,
			"count":24,
			"max":[
				0.46755313873291016,
				3.1199538707733154,
				4.884470462799072
			],
			"min":[
				-0.46755313873291016,
				-2.6483187675476074,
				-4.884470462799072
			],
			"type":"VEC3"
		},
		{
			"bufferView":120,
			"componentType":5126,
			"count":24,
			"type":"VEC2"
		},
		{
			"bufferView":121,
			"componentType":5126,
			"count":24,
			"type":"VEC3"
		},
		{
			"bufferView":122,
			"componentType":5126,
			"count":25,
			"max":[
				1
			],
			"min":[
				0
			],
			"type":"SCALAR"
		},
		{
			"bufferView":123,
			"componentType":5126,
			"count":25,
			"type":"VEC3"
		},
		{
			"bufferView":124,
			"componentType":5126,
			"count":25,
			"type":"VEC4"
		},
		{
			"bufferView":125,
			"componentType":5126,
			"count":25,
			"type":"VEC3"
		},
		{
			"bufferView":126,
			"componentType":5126,
			"count":25,
			"type":"VEC3"
		},
		{
			"bufferView":127,
			"componentType":5126,
			"count":25,
			"type":"VEC4"
		},
		{
			"bufferView":128,
			"componentType":5126,
			"count":25,
			"type":"VEC3"
		},
		{
			"bufferView":129,
			"componentType":5126,
			"count":25,
			"type":"VEC3"
		},
		{
			"bufferView":130,
			"componentType":5126,
			"count":25,
			"type":"VEC4"
		},
		{
			"bufferView":131,
			"componentType":5126,
			"count":25,
			"type":"VEC3"
		},
		{
			"bufferView":132,
			"componentType":5126,
			"count":25,
			"type":"VEC3"
		},
		{
			"bufferView":133,
			"componentType":5126,
			"count":25,
			"type":"VEC4"
		},
		{
			"bufferView":134,
			"componentType":5126,
			"count":25,
			"type":"VEC3"
		},
		{
			"bufferView":135,
			"componentType":5126,
			"count":25,
			"type":"VEC3"
		},
		{
			"bufferView":136,
			"componentType":5126,
			"count":25,
			"type":"VEC4"
		},
		{
			"bufferView":137,
			"componentType":5126,
			"count":25,
			"type":"VEC3"
		},
		{
			"bufferView":138,
			"componentType":5126,
			"count":25,
			"type":"VEC3"
		},
		{
			"bufferView":139,
			"componentType":5126,
			"count":25,
			"type":"VEC4"
		},
		{
			"bufferView":140,
			"componentType":5126,
			"count":25,
			"type":"VEC3"
		},
		{
			"bufferView":141,
			"componentType":5126,
			"count":25,
			"type":"VEC3"
		},
		{
			"bufferView":142,
			"componentType":5126,
			"count":25,
			"type":"VEC4"
		},
		{
			"bufferView":143,
			"componentType":5126,
			"count":25,
			"type":"VEC3"
		},
		{
			"bufferView":144,
			"componentType":5126,
			"count":1,
			"max":[
				0.2916666666666667
			],
			"min":[
				0.2916666666666667
			],
			"type":"SCALAR"
		},
		{
			"bufferView":145,
			"componentType":5126,
			"count":1,
			"type":"VEC3"
		},
		{
			"bufferView":146,
			"componentType":5126,
			"count":1,
			"type":"VEC4"
		},
		{
			"bufferView":147,
			"componentType":5126,
			"count":1,
			"type":"VEC3"
		},
		{
			"bufferView":148,
			"componentType":5126,
			"count":1,
			"type":"VEC3"
		},
		{
			"bufferView":149,
			"componentType":5126,
			"count":1,
			"type":"VEC4"
		},
		{
			"bufferView":150,
			"componentType":5126,
			"count":1,
			"type":"VEC3"
		},
		{
			"bufferView":151,
			"componentType":5126,
			"count":1,
			"type":"VEC3"
		},
		{
			"bufferView":152,
			"componentType":5126,
			"count":1,
			"type":"VEC4"
		},
		{
			"bufferView":153,
			"componentType":5126,
			"count":1,
			"type":"VEC3"
		},
		{
			"bufferView":154,
			"componentType":5126,
			"count":1,
			"type":"VEC3"
		},
		{
			"bufferView":155,
			"componentType":5126,
			"count":1,
			"type":"VEC4"
		},
		{
			"bufferView":156,
			"componentType":5126,
			"count":1,
			"type":"VEC3"
		},
		{
			"bufferView":157,
			"componentType":5126,
			"count":1,
			"type":"VEC3"
		},
		{
			"bufferView":158,
			"componentType":5126,
			"count":1,
			"type":"VEC4"
		},
		{
			"bufferView":159,
			"componentType":5126,
			"count":1,
			"type":"VEC3"
		},
		{
			"bufferView":160,
			"componentType":5126,
			"count":1,
			"type":"VEC3"
		},
		{
			"bufferView":161,
			"componentType":5126,
			"count":1,
			"type":"VEC4"
		},
		{
			"bufferView":162,
			"componentType":5126,
			"count":1,
			"type":"VEC3"
		},
		{
			"bufferView":163,
			"componentType":5126,
			"count":13,
			"max":[
				0.5416666666666666
			],
			"min":[
				0.041666666666666664
			],
			"type":"SCALAR"
		},
		{
			"bufferView":164,
			"componentType":5126,
			"count":13,
			"type":"VEC3"
		},
		{
			"bufferView":165,
			"componentType":5126,
			"count":13,
			"type":"VEC4"
		},
		{
			"bufferView":166,
			"componentType":5126,
			"count":13,
			"type":"VEC3"
		},
		{
			"bufferView":167,
			"componentType":5126,
			"count":13,
			"type":"VEC3"
		},
		{
			"bufferView":168,
			"componentType":5126,
			"count":13,
			"type":"VEC4"
		},
		{
			"bufferView":169,
			"componentType":5126,
			"count":13,
			"type":"VEC3"
		},
		{
			"bufferView":170,
			"componentType":5126,
			"count":13,
			"type":"VEC3"
		},
		{
			"bufferView":171,
			"componentType":5126,
			"count":13,
			"type":"VEC4"
		},
		{
			"bufferView":172,
			"componentType":5126,
			"count":13,
			"type":"VEC3"
		},
		{
			"bufferView":173,
			"componentType":5126,
			"count":13,
			"type":"VEC3"
		},
		{
			"bufferView":174,
			"componentType":5126,
			"count":13,
			"type":"VEC4"
		},
		{
			"bufferView":175,
			"componentType":5126,
			"count":13,
			"type":"VEC3"
		},
		{
			"bufferView":176,
			"componentType":5126,
			"count":13,
			"type":"VEC3"
		},
		{
			"bufferView":177,
			"componentType":5126,
			"count":13,
			"type":"VEC4"
		},
		{
			"bufferView":178,
			"componentType":5126,
			"count":13,
			"type":"VEC3"
		},
		{
			"bufferView":179,
			"componentType":5126,
			"count":24,
			"max":[
				1
			],
			"min":[
				0.041666666666666664
			],
			"type":"SCALAR"
		},
		{
			"bufferView":180,
			"componentType":5126,
			"count":24,
			"type":"VEC3"
		},
		{
			"bufferView":181,
			"componentType":5126,
			"count":24,
			"type":"VEC4"
		},
		{
			"bufferView":182,
			"componentType":5126,
			"count":24,
			"type":"VEC3"
		},
		{
			"bufferView":183,
			"componentType":5126,
			"count":24,
			"type":"VEC3"
		},
		{
			"bufferView":184,
			"componentType":5126,
			"count":24,
			"type":"VEC4"
		},
		{
			"bufferView":185,
			"componentType":5126,
			"count":24,
			"type":"VEC3"
		},
		{
			"bufferView":186,
			"componentType":5126,
			"count":24,
			"type":"VEC3"
		},
		{
			"bufferView":187,
			"componentType":5126,
			"count":24,
			"type":"VEC4"
		},
		{
			"bufferView":188,
			"componentType":5126,
			"count":24,
			"type":"VEC3"
		},
		{
			"bufferView":189,
			"componentType":5126,
			"count":24,
			"type":"VEC3"
		},
		{
			"bufferView":190,
			"componentType":5126,
			"count":24,
			"type":"VEC4"
		},
		{
			"bufferView":191,
			"componentType":5126,
			"count":24,
			"type":"VEC3"
		},
		{
			"bufferView":192,
			"componentType":5126,
			"count":24,
			"type":"VEC3"
		},
		{
			"bufferView":193,
			"componentType":5126,
			"count":24,
			"type":"VEC4"
		},
		{
			"bufferView":194,
			"componentType":5126,
			"count":24,
			"type":"VEC3"
		},
		{
			"bufferView":195,
			"componentType":5126,
			"count":25,
			"type":"VEC3"
		},
		{
			"bufferView":196,
			"componentType":5126,
			"count":25,
			"type":"VEC4"
		},
		{
			"bufferView":197,
			"componentType":5126,
			"count":25,
			"type":"VEC3"
		},
		{
			"bufferView":198,
			"componentType":5126,
			"count":25,
			"type":"VEC3"
		},
		{
			"bufferView":199,
			"componentType":5126,
			"count":25,
			"type":"VEC4"
		},
		{
			"bufferView":200,
			"componentType":5126,
			"count":25,
			"type":"VEC3"
		},
		{
			"bufferView":201,
			"componentType":5126,
			"count":25,
			"type":"VEC3"
		},
		{
			"bufferView":202,
			"componentType":5126,
			"count":25,
			"type":"VEC4"
		},
		{
			"bufferView":203,
			"componentType":5126,
			"count":25,
			"type":"VEC3"
		},
		{
			"bufferView":204,
			"componentType":5126,
			"count":25,
			"type":"VEC3"
		},
		{
			"bufferView":205,
			"componentType":5126,
			"count":25,
			"type":"VEC4"
		},
		{
			"bufferView":206,
			"componentType":5126,
			"count":25,
			"type":"VEC3"
		},
		{
			"bufferView":207,
			"componentType":5126,
			"count":25,
			"type":"VEC3"
		},
		{
			"bufferView":208,
			"componentType":5126,
			"count":25,
			"type":"VEC4"
		},
		{
			"bufferView":209,
			"componentType":5126,
			"count":25,
			"type":"VEC3"
		},
		{
			"bufferView":210,
			"componentType":5126,
			"count":25,
			"type":"VEC3"
		},
		{
			"bufferView":211,
			"componentType":5126,
			"count":25,
			"type":"VEC4"
		},
		{
			"bufferView":212,
			"componentType":5126,
			"count":25,
			"type":"VEC3"
		},
		{
			"bufferView":213,
			"componentType":5126,
			"count":25,
			"type":"VEC3"
		},
		{
			"bufferView":214,
			"componentType":5126,
			"count":25,
			"type":"VEC4"
		},
		{
			"bufferView":215,
			"componentType":5126,
			"count":25,
			"type":"VEC3"
		},
		{
			"bufferView":216,
			"componentType":5126,
			"count":25,
			"type":"VEC3"
		},
		{
			"bufferView":217,
			"componentType":5126,
			"count":25,
			"type":"VEC4"
		},
		{
			"bufferView":218,
			"componentType":5126,
			"count":25,
			"type":"VEC3"
		},
		{
			"bufferView":219,
			"componentType":5126,
			"count":25,
			"type":"VEC3"
		},
		{
			"bufferView":220,
			"componentType":5126,
			"count":25,
			"type":"VEC4"
		},
		{
			"bufferView":221,
			"componentType":5126,
			"count":25,
			"type":"VEC3"
		},
		{
			"bufferView":222,
			"componentType":5126,
			"count":25,
			"type":"VEC3"
		},
		{
			"bufferView":223,
			"componentType":5126,
			"count":25,
			"type":"VEC4"
		},
		{
			"bufferView":224,
			"componentType":5126,
			"count":25,
			"type":"VEC3"
		},
		{
			"bufferView":225,
			"componentType":5126,
			"count":25,
			"type":"VEC3"
		},
		{
			"bufferView":226,
			"componentType":5126,
			"count":25,
			"type":"VEC4"
		},
		{
			"bufferView":227,
			"componentType":5126,
			"count":25,
			"type":"VEC3"
		},
		{
			"bufferView":228,
			"componentType":5126,
			"count":25,
			"type":"VEC3"
		},
		{
			"bufferView":229,
			"componentType":5126,
			"count":25,
			"type":"VEC4"
		},
		{
			"bufferView":230,
			"componentType":5126,
			"count":25,
			"type":"VEC3"
		},
		{
			"bufferView":231,
			"componentType":5126,
			"count":25,
			"type":"VEC3"
		},
		{
			"bufferView":232,
			"componentType":5126,
			"count":25,
			"type":"VEC4"
		},
		{
			"bufferView":233,
			"componentType":5126,
			"count":25,
			"type":"VEC3"
		},
		{
			"bufferView":234,
			"componentType":5126,
			"count":25,
			"type":"VEC3"
		},
		{
			"bufferView":235,
			"componentType":5126,
			"count":25,
			"type":"VEC4"
		},
		{
			"bufferView":236,
			"componentType":5126,
			"count":25,
			"type":"VEC3"
		},
		{
			"bufferView":237,
			"componentType":5126,
			"count":25,
			"type":"VEC3"
		},
		{
			"bufferView":238,
			"componentType":5126,
			"count":25,
			"type":"VEC4"
		},
		{
			"bufferView":239,
			"componentType":5126,
			"count":25,
			"type":"VEC3"
		},
		{
			"bufferView":240,
			"componentType":5126,
			"count":25,
			"type":"VEC3"
		},
		{
			"bufferView":241,
			"componentType":5126,
			"count":25,
			"type":"VEC4"
		},
		{
			"bufferView":242,
			"componentType":5126,
			"count":25,
			"type":"VEC3"
		},
		{
			"bufferView":243,
			"componentType":5126,
			"count":25,
			"type":"VEC3"
		},
		{
			"bufferView":244,
			"componentType":5126,
			"count":25,
			"type":"VEC4"
		},
		{
			"bufferView":245,
			"componentType":5126,
			"count":25,
			"type":"VEC3"
		},
		{
			"bufferView":246,
			"componentType":5126,
			"count":25,
			"type":"VEC3"
		},
		{
			"bufferView":247,
			"componentType":5126,
			"count":25,
			"type":"VEC4"
		},
		{
			"bufferView":248,
			"componentType":5126,
			"count":25,
			"type":"VEC3"
		},
		{
			"bufferView":249,
			"componentType":5126,
			"count":25,
			"type":"VEC3"
		},
		{
			"bufferView":250,
			"componentType":5126,
			"count":25,
			"type":"VEC4"
		},
		{
			"bufferView":251,
			"componentType":5126,
			"count":25,
			"type":"VEC3"
		},
		{
			"bufferView":252,
			"componentType":5126,
			"count":25,
			"type":"VEC3"
		},
		{
			"bufferView":253,
			"componentType":5126,
			"count":25,
			"type":"VEC4"
		},
		{
			"bufferView":254,
			"componentType":5126,
			"count":25,
			"type":"VEC3"
		},
		{
			"bufferView":255,
			"componentType":5126,
			"count":5,
			"type":"MAT4"
		}
	],
	"bufferViews":[
		{
			"buffer":0,
			"byteLength":11664,
			"byteOffset":0,
			"target":34962
		},
		{
			"buffer":0,
			"byteLength":11664,
			"byteOffset":11664,
			"target":34962
		},
		{
			"buffer":0,
			"byteLength":1944,
			"byteOffset":23328,
			"target":34963
		},
		{
			"buffer":0,
			"byteLength":1380,
			"byteOffset":25272,
			"target":34962
		},
		{
			"buffer":0,
			"byteLength":920,
			"byteOffset":26652,
			"target":34962
		},
		{
			"buffer":0,
			"byteLength":1380,
			"byteOffset":27572,
			"target":34962
		},
		{
			"buffer":0,
			"byteLength":1008,
			"byteOffset":28952,
			"target":34963
		},
		{
			"buffer":0,
			"byteLength":5316,
			"byteOffset":29960,
			"target":34962
		},
		{
			"buffer":0,
			"byteLength":3544,
			"byteOffset":35276,
			"target":34962
		},
		{
			"buffer":0,
			"byteLength":5316,
			"byteOffset":38820,
			"target":34962
		},
		{
			"buffer":0,
			"byteLength":2664,
			"byteOffset":44136,
			"target":34963
		},
		{
			"buffer":0,
			"byteLength":4284,
			"byteOffset":46800,
			"target":34962
		},
		{
			"buffer":0,
			"byteLength":2856,
			"byteOffset":51084,
			"target":34962
		},
		{
			"buffer":0,
			"byteLength":4284,
			"byteOffset":53940,
			"target":34962
		},
		{
			"buffer":0,
			"byteLength":3408,
			"byteOffset":58224,
			"target":34963
		},
		{
			"buffer":0,
			"byteLength":2940,
			"byteOffset":61632,
			"target":34962
		},
		{
			"buffer":0,
			"byteLength":1960,
			"byteOffset":64572,
			"target":34962
		},
		{
			"buffer":0,
			"byteLength":2940,
			"byteOffset":66532,
			"target":34962
		},
		{
			"buffer":0,
			"byteLength":2376,
			"byteOffset":69472,
			"target":34963
		},
		{
			"buffer":0,
			"byteLength":768,
			"byteOffset":71848,
			"target":34962
		},
		{
			"buffer":0,
			"byteLength":512,
			"byteOffset":72616,
			"target":34962
		},
		{
			"buffer":0,
			"byteLength":768,
			"byteOffset":73128,
			"target":34962
		},
		{
			"buffer":0,
			"byteLength":384,
			"byteOffset":73896,
			"target":34963
		},
		{
			"buffer":0,
			"byteLength":600,
			"byteOffset":74280,
			"target":34962
		},
		{
			"buffer":0,
			"byteLength":400,
			"byteOffset":74880,
			"target":34962
		},
		{
			"buffer":0,
			"byteLength":600,
			"byteOffset":75280,
			"target":34962
		},
		{
			"buffer":0,
			"byteLength":360,
			"byteOffset":75880,
			"target":34963
		},
		{
			"buffer":0,
			"byteLength":840,
			"byteOffset":76240,
			"target":34962
		},
		{
			"buffer":0,
			"byteLength":560,
			"byteOffset":77080,
			"target":34962
		},
		{
			"buffer":0,
			"byteLength":840,
			"byteOffset":77640,
			"target":34962
		},
		{
			"buffer":0,
			"byteLength":312,
			"byteOffset":78480,
			"target":34963
		},
		{
			"buffer":0,
			"byteLength":1584,
			"byteOffset":78792,
			"target":34962
		},
		{
			"buffer":0,
			"byteLength":1056,
			"byteOffset":80376,
			"target":34962
		},
		{
			"buffer":0,
			"byteLength":1584,
			"byteOffset":81432,
			"target":34962
		},
		{
			"buffer":0,
			"byteLength":1104,
			"byteOffset":83016,
			"target":34963
		},
		{
			"buffer":0,
			"byteLength":336,
			"byteOffset":84120,
			"target":34962
		},
		{
			"buffer":0,
			"byteLength":224,
			"byteOffset":84456,
			"target":34962
		},
		{
			"buffer":0,
			"byteLength":336,
			"byteOffset":84680,
			"target":34962
		},
		{
			"buffer":0,
			"byteLength":144,
			"byteOffset":85016,
			"target":34963
		},
		{
			"buffer":0,
			"byteLength":1152,
			"byteOffset":85160,
			"target":34962
		},
		{
			"buffer":0,
			"byteLength":768,
			"byteOffset":86312,
			"target":34962
		},
		{
			"buffer":0,
			"byteLength":1152,
			"byteOffset":87080,
			"target":34962
		},
		{
			"buffer":0,
			"byteLength":264,
			"byteOffset":88232,
			"target":34963
		},
		{
			"buffer":0,
			"byteLength":52932,
			"byteOffset":88496,
			"target":34962
		},
		{
			"buffer":0,
			"byteLength":35288,
			"byteOffset":141428,
			"target":34962
		},
		{
			"buffer":0,
			"byteLength":52932,
			"byteOffset":176716,
			"target":34962
		},
		{
			"buffer":0,
			"byteLength":43704,
			"byteOffset":229648,
			"target":34963
		},
		{
			"buffer":0,
			"byteLength":2016,
			"byteOffset":273352,
			"target":34962
		},
		{
			"buffer":0,
			"byteLength":1344,
			"byteOffset":275368,
			"target":34962
		},
		{
			"buffer":0,
			"byteLength":2016,
			"byteOffset":276712,
			"target":34962
		},
		{
			"buffer":0,
			"byteLength":528,
			"byteOffset":278728,
			"target":34963
		},
		{
			"buffer":0,
			"byteLength":4176,
			"byteOffset":279256,
			"target":34962
		},
		{
			"buffer":0,
			"byteLength":2784,
			"byteOffset":283432,
			"target":34962
		},
		{
			"buffer":0,
			"byteLength":4176,
			"byteOffset":286216,
			"target":34962
		},
		{
			"buffer":0,
			"byteLength":1104,
			"byteOffset":290392,
			"target":34963
		},
		{
			"buffer":0,
			"byteLength":19416,
			"byteOffset":291496,
			"target":34962
		},
		{
			"buffer":0,
			"byteLength":12944,
			"byteOffset":310912,
			"target":34962
		},
		{
			"buffer":0,
			"byteLength":19416,
			"byteOffset":323856,
			"target":34962
		},
		{
			"buffer":0,
			"byteLength":7200,
			"byteOffset":343272,
			"target":34963
		},
		{
			"buffer":0,
			"byteLength":1152,
			"byteOffset":350472,
			"target":34962
		},
		{
			"buffer":0,
			"byteLength":768,
			"byteOffset":351624,
			"target":34962
		},
		{
			"buffer":0,
			"byteLength":1152,
			"byteOffset":352392,
			"target":34962
		},
		{
			"buffer":0,
			"byteLength":264,
			"byteOffset":353544,
			"target":34963
		},
		{
			"buffer":0,
			"byteLength":10752,
			"byteOffset":353808,
			"target":34962
		},
		{
			"buffer":0,
			"byteLength":7168,
			"byteOffset":364560,
			"target":34962
		},
		{
			"buffer":0,
			"byteLength":10752,
			"byteOffset":371728,
			"target":34962
		},
		{
			"buffer":0,
			"byteLength":3048,
			"byteOffset":382480,
			"target":34963
		},
		{
			"buffer":0,
			"byteLength":15552,
			"byteOffset":385528,
			"target":34962
		},
		{
			"buffer":0,
			"byteLength":10368,
			"byteOffset":401080,
			"target":34962
		},
		{
			"buffer":0,
			"byteLength":15552,
			"byteOffset":411448,
			"target":34962
		},
		{
			"buffer":0,
			"byteLength":5448,
			"byteOffset":427000,
			"target":34963
		},
		{
			"buffer":0,
			"byteLength":16608,
			"byteOffset":432448,
			"target":34962
		},
		{
			"buffer":0,
			"byteLength":11072,
			"byteOffset":449056,
			"target":34962
		},
		{
			"buffer":0,
			"byteLength":16608,
			"byteOffset":460128,
			"target":34962
		},
		{
			"buffer":0,
			"byteLength":9642,
			"byteOffset":476736,
			"target":34963
		},
		{
			"buffer":0,
			"byteLength":3540,
			"byteOffset":486380,
			"target":34962
		},
		{
			"buffer":0,
			"byteLength":2360,
			"byteOffset":489920,
			"target":34962
		},
		{
			"buffer":0,
			"byteLength":3540,
			"byteOffset":492280,
			"target":34962
		},
		{
			"buffer":0,
			"byteLength":1056,
			"byteOffset":495820,
			"target":34963
		},
		{
			"buffer":0,
			"byteLength":864,
			"byteOffset":496876,
			"target":34962
		},
		{
			"buffer":0,
			"byteLength":576,
			"byteOffset":497740,
			"target":34962
		},
		{
			"buffer":0,
			"byteLength":864,
			"byteOffset":498316,
			"target":34962
		},
		{
			"buffer":0,
			"byteLength":264,
			"byteOffset":499180,
			"target":34963
		},
		{
			"buffer":0,
			"byteLength":3336,
			"byteOffset":499444,
			"target":34962
		},
		{
			"buffer":0,
			"byteLength":2224,
			"byteOffset":502780,
			"target":34962
		},
		{
			"buffer":0,
			"byteLength":3336,
			"byteOffset":505004,
			"target":34962
		},
		{
			"buffer":0,
			"byteLength":3144,
			"byteOffset":508340,
			"target":34963
		},
		{
			"buffer":0,
			"byteLength":1776,
			"byteOffset":511484,
			"target":34962
		},
		{
			"buffer":0,
			"byteLength":1184,
			"byteOffset":513260,
			"target":34962
		},
		{
			"buffer":0,
			"byteLength":1776,
			"byteOffset":514444,
			"target":34962
		},
		{
			"buffer":0,
			"byteLength":672,
			"byteOffset":516220,
			"target":34963
		},
		{
			"buffer":0,
			"byteLength":216,
			"byteOffset":516892,
			"target":34962
		},
		{
			"buffer":0,
			"byteLength":144,
			"byteOffset":517108,
			"target":34962
		},
		{
			"buffer":0,
			"byteLength":216,
			"byteOffset":517252,
			"target":34962
		},
		{
			"buffer":0,
			"byteLength":72,
			"byteOffset":517468,
			"target":34963
		},
		{
			"buffer":0,
			"byteLength":288,
			"byteOffset":517540,
			"target":34962
		},
		{
			"buffer":0,
			"byteLength":192,
			"byteOffset":517828,
			"target":34962
		},
		{
			"buffer":0,
			"byteLength":288,
			"byteOffset":518020,
			"target":34962
		},
		{
			"buffer":0,
			"byteLength":72,
			"byteOffset":518308,
			"target":34963
		},
		{
			"buffer":0,
			"byteLength":288,
			"byteOffset":518380,
			"target":34962
		},
		{
			"buffer":0,
			"byteLength":192,
			"byteOffset":518668,
			"target":34962
		},
		{
			"buffer":0,
			"byteLength":288,
			"byteOffset":518860,
			"target":34962
		},
		{
			"buffer":0,
			"byteLength":72,
			"byteOffset":519148,
			"target":34963
		},
		{
			"buffer":0,
			"byteLength":2280,
			"byteOffset":519220,
			"target":34962
		},
		{
			"buffer":0,
			"byteLength":1520,
			"byteOffset":521500,
			"target":34962
		},
		{
			"buffer":0,
			"byteLength":2280,
			"byteOffset":523020,
			"target":34962
		},
		{
			"buffer":0,
			"byteLength":792,
			"byteOffset":525300,
			"target":34963
		},
		{
			"buffer":0,
			"byteLength":2304,
			"byteOffset":526092,
			"target":34962
		},
		{
			"buffer":0,
			"byteLength":1536,
			"byteOffset":528396,
			"target":34962
		},
		{
			"buffer":0,
			"byteLength":2304,
			"byteOffset":529932,
			"target":34962
		},
		{
			"buffer":0,
			"byteLength":576,
			"byteOffset":532236,
			"target":34963
		},
		{
			"buffer":0,
			"byteLength":288,
			"byteOffset":532812,
			"target":34962
		},
		{
			"buffer":0,
			"byteLength":192,
			"byteOffset":533100,
			"target":34962
		},
		{
			"buffer":0,
			"byteLength":288,
			"byteOffset":533292,
			"target":34962
		},
		{
			"buffer":0,
			"byteLength":72,
			"byteOffset":533580,
			"target":34963
		},
		{
			"buffer":0,
			"byteLength":288,
			"byteOffset":533652,
			"target":34962
		},
		{
			"buffer":0,
			"byteLength":192,
			"byteOffset":533940,
			"target":34962
		},
		{
			"buffer":0,
			"byteLength":288,
			"byteOffset":534132,
			"target":34962
		},
		{
			"buffer":0,
			"byteLength":72,
			"byteOffset":534420,
			"target":34963
		},
		{
			"buffer":0,
			"byteLength":288,
			"byteOffset":534492,
			"target":34962
		},
		{
			"buffer":0,
			"byteLength":192,
			"byteOffset":534780,
			"target":34962
		},
		{
			"buffer":0,
			"byteLength":288,
			"byteOffset":534972,
			"target":34962
		},
		{
			"buffer":0,
			"byteLength":100,
			"byteOffset":535260
		},
		{
			"buffer":0,
			"byteLength":300,
			"byteOffset":535360
		},
		{
			"buffer":0,
			"byteLength":400,
			"byteOffset":535660
		},
		{
			"buffer":0,
			"byteLength":300,
			"byteOffset":536060
		},
		{
			"buffer":0,
			"byteLength":300,
			"byteOffset":536360
		},
		{
			"buffer":0,
			"byteLength":400,
			"byteOffset":536660
		},
		{
			"buffer":0,
			"byteLength":300,
			"byteOffset":537060
		},
		{
			"buffer":0,
			"byteLength":300,
			"byteOffset":537360
		},
		{
			"buffer":0,
			"byteLength":400,
			"byteOffset":537660
		},
		{
			"buffer":0,
			"byteLength":300,
			"byteOffset":538060
		},
		{
			"buffer":0,
			"byteLength":300,
			"byteOffset":538360
		},
		{
			"buffer":0,
			"byteLength":400,
			"byteOffset":538660
		},
		{
			"buffer":0,
			"byteLength":300,
			"byteOffset":539060
		},
		{
			"buffer":0,
			"byteLength":300,
			"byteOffset":539360
		},
		{
			"buffer":0,
			"byteLength":400,
			"byteOffset":539660
		},
		{
			"buffer":0,
			"byteLength":300,
			"byteOffset":540060
		},
		{
			"buffer":0,
			"byteLength":300,
			"byteOffset":540360
		},
		{
			"buffer":0,
			"byteLength":400,
			"byteOffset":540660
		},
		{
			"buffer":0,
			"byteLength":300,
			"byteOffset":541060
		},
		{
			"buffer":0,
			"byteLength":300,
			"byteOffset":541360
		},
		{
			"buffer":0,
			"byteLength":400,
			"byteOffset":541660
		},
		{
			"buffer":0,
			"byteLength":300,
			"byteOffset":542060
		},
		{
			"buffer":0,
			"byteLength":4,
			"byteOffset":542360
		},
		{
			"buffer":0,
			"byteLength":12,
			"byteOffset":542364
		},
		{
			"buffer":0,
			"byteLength":16,
			"byteOffset":542376
		},
		{
			"buffer":0,
			"byteLength":12,
			"byteOffset":542392
		},
		{
			"buffer":0,
			"byteLength":12,
			"byteOffset":542404
		},
		{
			"buffer":0,
			"byteLength":16,
			"byteOffset":542416
		},
		{
			"buffer":0,
			"byteLength":12,
			"byteOffset":542432
		},
		{
			"buffer":0,
			"byteLength":12,
			"byteOffset":542444
		},
		{
			"buffer":0,
			"byteLength":16,
			"byteOffset":542456
		},
		{
			"buffer":0,
			"byteLength":12,
			"byteOffset":542472
		},
		{
			"buffer":0,
			"byteLength":12,
			"byteOffset":542484
		},
		{
			"buffer":0,
			"byteLength":16,
			"byteOffset":542496
		},
		{
			"buffer":0,
			"byteLength":12,
			"byteOffset":542512
		},
		{
			"buffer":0,
			"byteLength":12,
			"byteOffset":542524
		},
		{
			"buffer":0,
			"byteLength":16,
			"byteOffset":542536
		},
		{
			"buffer":0,
			"byteLength":12,
			"byteOffset":542552
		},
		{
			"buffer":0,
			"byteLength":12,
			"byteOffset":542564
		},
		{
			"buffer":0,
			"byteLength":16,
			"byteOffset":542576
		},
		{
			"buffer":0,
			"byteLength":12,
			"byteOffset":542592
		},
		{
			"buffer":0,
			"byteLength":52,
			"byteOffset":542604
		},
		{
			"buffer":0,
			"byteLength":156,
			"byteOffset":542656
		},
		{
			"buffer":0,
			"byteLength":208,
			"byteOffset":542812
		},
		{
			"buffer":0,
			"byteLength":156,
			"byteOffset":543020
		},
		{
			"buffer":0,
			"byteLength":156,
			"byteOffset":543176
		},
		{
			"buffer":0,
			"byteLength":208,
			"byteOffset":543332
		},
		{
			"buffer":0,
			"byteLength":156,
			"byteOffset":543540
		},
		{
			"buffer":0,
			"byteLength":156,
			"byteOffset":543696
		},
		{
			"buffer":0,
			"byteLength":208,
			"byteOffset":543852
		},
		{
			"buffer":0,
			"byteLength":156,
			"byteOffset":544060
		},
		{
			"buffer":0,
			"byteLength":156,
			"byteOffset":544216
		},
		{
			"buffer":0,
			"byteLength":208,
			"byteOffset":544372
		},
		{
			"buffer":0,
			"byteLength":156,
			"byteOffset":544580
		},
		{
			"buffer":0,
			"byteLength":156,
			"byteOffset":544736
		},
		{
			"buffer":0,
			"byteLength":208,
			"byteOffset":544892
		},
		{
			"buffer":0,
			"byteLength":156,
			"byteOffset":545100
		},
		{
			"buffer":0,
			"byteLength":96,
			"byteOffset":545256
		},
		{
			"buffer":0,
			"byteLength":288,
			"byteOffset":545352
		},
		{
			"buffer":0,
			"byteLength":384,
			"byteOffset":545640
		},
		{
			"buffer":0,
			"byteLength":288,
			"byteOffset":546024
		},
		{
			"buffer":0,
			"byteLength":288,
			"byteOffset":546312
		},
		{
			"buffer":0,
			"byteLength":384,
			"byteOffset":546600
		},
		{
			"buffer":0,
			"byteLength":288,
			"byteOffset":546984
		},
		{
			"buffer":0,
			"byteLength":288,
			"byteOffset":547272
		},
		{
			"buffer":0,
			"byteLength":384,
			"byteOffset":547560
		},
		{
			"buffer":0,
			"byteLength":288,
			"byteOffset":547944
		},
		{
			"buffer":0,
			"byteLength":288,
			"byteOffset":548232
		},
		{
			"buffer":0,
			"byteLength":384,
			"byteOffset":548520
		},
		{
			"buffer":0,
			"byteLength":288,
			"byteOffset":548904
		},
		{
			"buffer":0,
			"byteLength":288,
			"byteOffset":549192
		},
		{
			"buffer":0,
			"byteLength":384,
			"byteOffset":549480
		},
		{
			"buffer":0,
			"byteLength":288,
			"byteOffset":549864
		},
		{
			"buffer":0,
			"byteLength":300,
			"byteOffset":550152
		},
		{
			"buffer":0,
			"byteLength":400,
			"byteOffset":550452
		},
		{
			"buffer":0,
			"byteLength":300,
			"byteOffset":550852
		},
		{
			"buffer":0,
			"byteLength":300,
			"byteOffset":551152
		},
		{
			"buffer":0,
			"byteLength":400,
			"byteOffset":551452
		},
		{
			"buffer":0,
			"byteLength":300,
			"byteOffset":551852
		},
		{
			"buffer":0,
			"byteLength":300,
			"byteOffset":552152
		},
		{
			"buffer":0,
			"byteLength":400,
			"byteOffset":552452
		},
		{
			"buffer":0,
			"byteLength":300,
			"byteOffset":552852
		},
		{
			"buffer":0,
			"byteLength":300,
			"byteOffset":553152
		},
		{
			"buffer":0,
			"byteLength":400,
			"byteOffset":553452
		},
		{
			"buffer":0,
			"byteLength":300,
			"byteOffset":553852
		},
		{
			"buffer":0,
			"byteLength":300,
			"byteOffset":554152
		},
		{
			"buffer":0,
			"byteLength":400,
			"byteOffset":554452
		},
		{
			"buffer":0,
			"byteLength":300,
			"byteOffset":554852
		},
		{
			"buffer":0,
			"byteLength":300,
			"byteOffset":555152
		},
		{
			"buffer":0,
			"byteLength":400,
			"byteOffset":555452
		},
		{
			"buffer":0,
			"byteLength":300,
			"byteOffset":555852
		},
		{
			"buffer":0,
			"byteLength":300,
			"byteOffset":556152
		},
		{
			"buffer":0,
			"byteLength":400,
			"byteOffset":556452
		},
		{
			"buffer":0,
			"byteLength":300,
			"byteOffset":556852
		},
		{
			"buffer":0,
			"byteLength":300,
			"byteOffset":557152
		},
		{
			"buffer":0,
			"byteLength":400,
			"byteOffset":557452
		},
		{
			"buffer":0,
			"byteLength":300,
			"byteOffset":557852
		},
		{
			"buffer":0,
			"byteLength":300,
			"byteOffset":558152
		},
		{
			"buffer":0,
			"byteLength":400,
			"byteOffset":558452
		},
		{
			"buffer":0,
			"byteLength":300,
			"byteOffset":558852
		},
		{
			"buffer":0,
			"byteLength":300,
			"byteOffset":559152
		},
		{
			"buffer":0,
			"byteLength":400,
			"byteOffset":559452
		},
		{
			"buffer":0,
			"byteLength":300,
			"byteOffset":559852
		},
		{
			"buffer":0,
			"byteLength":300,
			"byteOffset":560152
		},
		{
			"buffer":0,
			"byteLength":400,
			"byteOffset":560452
		},
		{
			"buffer":0,
			"byteLength":300,
			"byteOffset":560852
		},
		{
			"buffer":0,
			"byteLength":300,
			"byteOffset":561152
		},
		{
			"buffer":0,
			"byteLength":400,
			"byteOffset":561452
		},
		{
			"buffer":0,
			"byteLength":300,
			"byteOffset":561852
		},
		{
			"buffer":0,
			"byteLength":300,
			"byteOffset":562152
		},
		{
			"buffer":0,
			"byteLength":400,
			"byteOffset":562452
		},
		{
			"buffer":0,
			"byteLength":300,
			"byteOffset":562852
		},
		{
			"buffer":0,
			"byteLength":300,
			"byteOffset":563152
		},
		{
			"buffer":0,
			"byteLength":400,
			"byteOffset":563452
		},
		{
			"buffer":0,
			"byteLength":300,
			"byteOffset":563852
		},
		{
			"buffer":0,
			"byteLength":300,
			"byteOffset":564152
		},
		{
			"buffer":0,
			"byteLength":400,
			"byteOffset":564452
		},
		{
			"buffer":0,
			"byteLength":300,
			"byteOffset":564852
		},
		{
			"buffer":0,
			"byteLength":300,
			"byteOffset":565152
		},
		{
			"buffer":0,
			"byteLength":400,
			"byteOffset":565452
		},
		{
			"buffer":0,
			"byteLength":300,
			"byteOffset":565852
		},
		{
			"buffer":0,
			"byteLength":300,
			"byteOffset":566152
		},
		{
			"buffer":0,
			"byteLength":400,
			"byteOffset":566452
		},
		{
			"buffer":0,
			"byteLength":300,
			"byteOffset":566852
		},
		{
			"buffer":0,
			"byteLength":300,
			"byteOffset":567152
		},
		{
			"buffer":0,
			"byteLength":400,
			"byteOffset":567452
		},
		{
			"buffer":0,
			"byteLength":300,
			"byteOffset":567852
		},
		{
			"buffer":0,
			"byteLength":300,
			"byteOffset":568152
		},
		{
			"buffer":0,
			"byteLength":400,
			"byteOffset":568452
		},
		{
			"buffer":0,
			"byteLength":300,
			"byteOffset":568852
		},
		{
			"buffer":0,
			"byteLength":300,
			"byteOffset":569152
		},
		{
			"buffer":0,
			"byteLength":400,
			"byteOffset":569452
		},
		{
			"buffer":0,
			"byteLength":300,
			"byteOffset":569852
		},
		{
			"buffer":0,
			"byteLength":320,
			"byteOffset":570152
		}
	],
	"samplers":[
		{
			"magFilter":9728,
			"minFilter":9984
		},
		{
			"magFilter":9729,
			"minFilter":9987
		}
	],
	"buffers":[
		{
			"byteLength":570472,
			"uri":"step21.bin"
		}
	]
}
